<svg width="62" height="62" viewBox="0 0 62 62" fill="none" xmlns="http://www.w3.org/2000/svg">
<g clip-path="url(#clip0)" filter="url(#filter0_d)">
<path d="M46.9082 11.8741H57.209C57.646 11.8741 58 11.52 58 11.0831C58 10.6462 57.646 10.2921 57.209 10.2921H46.9082C46.4712 10.2921 46.1172 10.6462 46.1172 11.0831C46.1172 11.52 46.4714 11.8741 46.9082 11.8741Z" fill="white"/>
<path d="M4.79102 11.8741H43.7441C44.1811 11.8741 44.5351 11.5199 44.5351 11.0831C44.5351 10.6462 44.1811 10.2921 43.7441 10.2921H38.9064C39.0889 9.60789 39.1825 8.90219 39.1825 8.18248C39.1825 3.67063 35.512 0 31.0001 0C29.0856 0 27.2227 0.675949 25.7548 1.90339C25.4196 2.18362 25.375 2.68249 25.6554 3.01767C25.9356 3.35275 26.4345 3.39725 26.7695 3.11702C27.9535 2.1272 29.4559 1.58203 31.0001 1.58203C34.6395 1.58203 37.6004 4.54296 37.6004 8.18248C37.6004 8.90757 37.4847 9.61506 37.256 10.2921H24.7441C24.5154 9.61495 24.3997 8.90747 24.3997 8.18248C24.3997 7.19307 24.6137 6.24122 25.0357 5.35338C25.2233 4.95882 25.0556 4.48696 24.6609 4.29933C24.2667 4.11191 23.7945 4.2795 23.607 4.67406C23.0832 5.77589 22.8176 6.9563 22.8176 8.18248C22.8176 8.90219 22.9112 9.60789 23.0937 10.2921H4.79102C4.35406 10.2921 4 10.6462 4 11.0831C4 11.5199 4.35416 11.8741 4.79102 11.8741Z" fill="white"/>
<path d="M9.3064 41.1194C8.92682 41.3358 8.79456 41.8189 9.01099 42.1983L9.5031 43.0615C9.64907 43.3174 9.91612 43.4608 10.191 43.4608C10.3239 43.4608 10.4584 43.4274 10.582 43.3569C10.9616 43.1405 11.0939 42.6575 10.8775 42.278L10.3853 41.4148C10.1689 41.0353 9.68577 40.9033 9.3064 41.1194Z" fill="white"/>
<path d="M13.4408 41.314L12.685 41.9588C12.3527 42.2423 12.3132 42.7416 12.5967 43.074C12.7532 43.2573 12.9753 43.3516 13.1989 43.3516C13.3804 43.3516 13.5629 43.2893 13.7119 43.1622L14.4677 42.5174C14.8 42.2339 14.8394 41.7346 14.5559 41.4023C14.2725 41.0702 13.7733 41.0304 13.4408 41.314Z" fill="white"/>
<path d="M21.9506 49.3028C22.1321 49.3028 22.3147 49.2406 22.4636 49.1135L23.2195 48.4686C23.5518 48.1851 23.5913 47.6858 23.3078 47.3534C23.0243 47.0213 22.5251 46.9815 22.1926 47.2652L21.4367 47.9101C21.1044 48.1936 21.065 48.6929 21.3485 49.0252C21.5049 49.2086 21.7269 49.3028 21.9506 49.3028Z" fill="white"/>
<path d="M47.2942 47.5877L46.5383 48.2327C46.206 48.5162 46.1665 49.0155 46.45 49.3478C46.6064 49.5311 46.8285 49.6254 47.0521 49.6254C47.2336 49.6254 47.4162 49.5632 47.5651 49.4361L48.321 48.7911C48.6534 48.5076 48.6928 48.0083 48.4093 47.676C48.1259 47.3439 47.6267 47.304 47.2942 47.5877Z" fill="white"/>
<path d="M33.2879 41.9813C33.4668 41.9813 33.6469 41.9209 33.7951 41.7971C34.1301 41.5167 34.1745 41.0179 33.8942 40.6828L33.2566 39.9206C32.9764 39.5854 32.4774 39.541 32.1424 39.8214C31.8073 40.1018 31.7629 40.6006 32.0432 40.9357L32.6808 41.6979C32.8371 41.8849 33.0616 41.9813 33.2879 41.9813Z" fill="white"/>
<path d="M49.1623 49.0903L49.4837 50.0305C49.5961 50.359 49.9033 50.5657 50.2321 50.5657C50.317 50.5657 50.4034 50.5519 50.4882 50.523C50.9016 50.3817 51.1221 49.932 50.9808 49.5186L50.6593 48.5785C50.5179 48.1652 50.0679 47.9448 49.6549 48.0859C49.2415 48.2272 49.0209 48.6769 49.1623 49.0903Z" fill="white"/>
<path d="M16.4614 26.2403C15.8802 25.9052 15.1597 25.9086 14.5814 26.2492L14.3679 26.3752C14.2796 26.4272 14.1698 26.4276 14.0813 26.3767L13.8648 26.252C13.2841 25.9174 12.5643 25.9208 11.9865 26.2607L11.7699 26.3882C11.682 26.44 11.5723 26.4406 11.4838 26.3896L10.7233 25.9519C10.3447 25.734 9.86106 25.8642 9.64316 26.2429C9.42527 26.6216 9.55552 27.1051 9.93415 27.323L10.6948 27.7608C11.2753 28.095 11.9948 28.0916 12.5725 27.7515L12.7889 27.6241C12.877 27.5726 12.9865 27.5718 13.0753 27.6228L13.292 27.7475C13.8732 28.0823 14.5932 28.0787 15.1711 27.738L15.3847 27.6121C15.4726 27.5603 15.5824 27.5596 15.6712 27.6107L16.4289 28.0476C16.5535 28.1193 16.6892 28.1534 16.8233 28.1534C17.0969 28.1534 17.3628 28.0113 17.5093 27.7573C17.7275 27.3788 17.5975 26.8951 17.2191 26.6769L16.4614 26.2403Z" fill="white"/>
<path d="M45.2374 19.2824L45.9979 19.7201C46.5785 20.0543 47.298 20.051 47.8757 19.711L48.0921 19.5836C48.1802 19.5318 48.2897 19.5313 48.3785 19.5823L48.5951 19.7069C49.1765 20.0418 49.8965 20.0381 50.474 19.6975L50.688 19.5715C50.7763 19.5195 50.8859 19.5191 50.9744 19.5701L51.7321 20.007C51.8567 20.0788 51.9924 20.1129 52.1265 20.1129C52.3999 20.1129 52.666 19.9708 52.8124 19.7168C53.0307 19.3384 52.9008 18.8546 52.5223 18.6364L51.7645 18.1996C51.1829 17.8644 50.4626 17.8679 49.8848 18.2086L49.6708 18.3347C49.5829 18.3866 49.4731 18.3872 49.3845 18.3361L49.168 18.2115C48.5873 17.877 47.8675 17.8803 47.2897 18.2202L47.0732 18.3476C46.9852 18.3995 46.8755 18.4001 46.787 18.3491L46.0265 17.9114C45.6478 17.6934 45.1643 17.8237 44.9464 18.2024C44.7285 18.5809 44.8588 19.0645 45.2374 19.2824Z" fill="white"/>
<path d="M26.4936 16.875C25.9122 16.5398 25.192 16.5432 24.6139 16.884L24.4 17.01C24.3119 17.062 24.2021 17.0624 24.1136 17.0114L23.8971 16.8867C23.3164 16.5522 22.5966 16.5554 22.0189 16.8955L21.8022 17.023C21.7141 17.0748 21.6045 17.0752 21.516 17.0244L20.7555 16.5867C20.377 16.3689 19.8933 16.499 19.6754 16.8776C19.4575 17.2563 19.5877 17.7399 19.9664 17.9579L20.7269 18.3954C21.3076 18.7298 22.0271 18.7263 22.6046 18.3865L22.8213 18.259C22.9096 18.2071 23.0193 18.2068 23.1076 18.2577L23.3241 18.3824C23.9054 18.7172 24.6255 18.7136 25.2032 18.373L25.4171 18.2469C25.5051 18.1951 25.6149 18.1945 25.7035 18.2456L26.4612 18.6824C26.5858 18.7542 26.7215 18.7883 26.8556 18.7883C27.1292 18.7883 27.3952 18.6462 27.5417 18.3922C27.7598 18.0138 27.6298 17.53 27.2514 17.3119L26.4936 16.875Z" fill="white"/>
<path d="M36.948 25.2888C36.3667 24.9537 35.6464 24.9572 35.068 25.298L34.8544 25.4239C34.7665 25.4759 34.6567 25.4764 34.568 25.4254L34.3515 25.3007C33.7709 24.9663 33.0511 24.9694 32.4734 25.3095L32.2566 25.437C32.1686 25.4888 32.059 25.4893 31.9705 25.4384L31.21 25.0007C30.8313 24.7829 30.3478 24.913 30.1299 25.2916C29.912 25.6703 30.0422 26.1539 30.4208 26.3719L31.1814 26.8094C31.7621 27.1438 32.4816 27.1403 33.059 26.8005L33.2758 26.673C33.3638 26.6213 33.4733 26.6207 33.562 26.6717L33.7787 26.7965C34.3599 27.1311 35.08 27.1275 35.6579 26.7869L35.8714 26.661C35.9597 26.609 36.0694 26.6085 36.1579 26.6596L36.9156 27.0964C37.0402 27.1682 37.1759 27.2023 37.31 27.2023C37.5834 27.2023 37.8495 27.0602 37.9959 26.8063C38.2142 26.4279 38.0843 25.9441 37.7058 25.7259L36.948 25.2888Z" fill="white"/>
<path d="M49.9493 41.2491C49.6651 39.6001 48.3028 38.3362 46.6365 38.1755C46.0335 38.1176 45.4434 38.2013 44.8969 38.4179C44.0719 37.4958 42.8979 36.8968 41.5928 36.8239C40.2567 36.7484 38.9897 37.2124 38.0217 38.1278C37.0671 39.0306 36.5197 40.3015 36.5197 41.6149L36.5202 41.6854C36.5346 42.6642 37.3453 43.4606 38.3275 43.4606H48.1831C48.6998 43.4606 49.1935 43.2394 49.5377 42.8538C49.8764 42.4744 50.0378 41.9689 49.9806 41.4676C49.9724 41.3953 49.962 41.3224 49.9493 41.2491ZM38.102 41.6654L38.1016 41.6149C38.1016 40.7215 38.4592 39.8913 39.1087 39.2772C39.7123 38.7065 40.4904 38.3981 41.3173 38.3981C41.3793 38.3981 41.4419 38.3999 41.5043 38.4034C43.0453 38.4895 44.2971 39.6665 44.5041 41.1659C44.537 41.4045 44.5437 41.6427 44.5243 41.8786H38.3272C38.2048 41.8787 38.1037 41.7815 38.102 41.6654ZM48.3574 41.8005C48.3313 41.8297 48.2741 41.8787 48.1831 41.8787H46.1095C46.1264 41.5705 46.1144 41.2602 46.0715 40.9495C46.016 40.5473 45.91 40.1623 45.7618 39.7996C45.9947 39.7435 46.2379 39.7265 46.4849 39.7503C47.4282 39.8412 48.2296 40.5846 48.3905 41.5179C48.3978 41.5606 48.4039 41.6032 48.4087 41.6462C48.4168 41.7172 48.3852 41.7693 48.3574 41.8005Z" fill="white"/>
<path d="M57.2091 36.4019C53.0535 36.4019 51.021 35.2241 48.8693 33.9773C46.6313 32.6804 44.3171 31.3394 39.7361 31.3394C35.1552 31.3394 32.841 32.6804 30.603 33.9773C28.4513 35.2241 26.4187 36.4019 22.2632 36.4019C21.246 36.4019 20.3288 36.3324 19.4593 36.1894C19.0278 36.1178 18.6214 36.4104 18.5505 36.8416C18.4796 37.2726 18.7716 37.6795 19.2027 37.7504C20.1581 37.9075 21.1592 37.9839 22.2633 37.9839C26.8442 37.9839 29.1584 36.6429 31.3964 35.346C33.5481 34.0992 35.5807 32.9214 39.7363 32.9214C43.8918 32.9214 45.9244 34.0992 48.0762 35.346C50.3141 36.6429 52.6283 37.9839 57.2092 37.9839C57.6461 37.9839 58.0002 37.6299 58.0002 37.1929C58.0002 36.7559 57.646 36.4019 57.2091 36.4019Z" fill="white"/>
<path d="M57.209 52.418H4.79102C4.35406 52.418 4 52.772 4 53.209C4 53.6459 4.35406 54 4.79102 54H57.209C57.6459 54 58 53.6459 58 53.209C58 52.772 57.6459 52.418 57.209 52.418Z" fill="white"/>
<path d="M4.791 32.9214C8.94657 32.9214 10.9793 34.0992 13.1312 35.346C13.9756 35.8353 14.8488 36.3413 15.854 36.7741C15.956 36.818 16.0621 36.8387 16.1664 36.8387C16.4728 36.8387 16.7646 36.6597 16.8934 36.3603C17.0662 35.9591 16.881 35.4938 16.4797 35.321C15.5607 34.9253 14.7659 34.4648 13.9243 33.9772C11.6861 32.6804 9.37182 31.3394 4.79089 31.3394C4.35394 31.3394 3.99988 31.6934 3.99988 32.1304C3.99988 32.5674 4.35415 32.9214 4.791 32.9214Z" fill="white"/>
</g>
<defs>
<filter id="filter0_d" x="0" y="0" width="62" height="62" filterUnits="userSpaceOnUse" color-interpolation-filters="sRGB">
<feFlood flood-opacity="0" result="BackgroundImageFix"/>
<feColorMatrix in="SourceAlpha" type="matrix" values="0 0 0 0 0 0 0 0 0 0 0 0 0 0 0 0 0 0 127 0"/>
<feOffset dy="4"/>
<feGaussianBlur stdDeviation="2"/>
<feColorMatrix type="matrix" values="0 0 0 0 0 0 0 0 0 0 0 0 0 0 0 0 0 0 0.25 0"/>
<feBlend mode="normal" in2="BackgroundImageFix" result="effect1_dropShadow"/>
<feBlend mode="normal" in="SourceGraphic" in2="effect1_dropShadow" result="shape"/>
</filter>
<clipPath id="clip0">
<rect width="54" height="54" fill="white" transform="translate(4)"/>
</clipPath>
</defs>
</svg>
