<svg xmlns="http://www.w3.org/2000/svg" xmlns:xlink="http://www.w3.org/1999/xlink" version="1.1" id="Layer_1" x="0px" y="0px" viewBox="0 0 150 150" style="enable-background:new 0 0 150 150;" xml:space="preserve">
<style type="text/css">
	.st0{fill:none;stroke:#fff;stroke-width:5;stroke-miterlimit:10;}
	.st1{fill:none;stroke:#fff;stroke-width:5;stroke-linecap:round;stroke-miterlimit:10;}
	.st2{fill:none;stroke:#fff;stroke-width:5;stroke-linejoin:round;stroke-miterlimit:10;}
	.st3{fill:none;stroke:#fff;stroke-width:5;stroke-linecap:round;stroke-linejoin:round;stroke-miterlimit:10;}
</style>
<g fill="#fff">
	<g>
		<g>
			<path d="M105.7,79H47.8c-1.4,0-2.5-1.1-2.5-2.5s1.1-2.5,2.5-2.5h57.9c1.4,0,2.5,1.1,2.5,2.5S107.1,79,105.7,79z"/>
			<path d="M116.2,106.7c-7.7,0-14-6.3-14-14s6.3-14,14-14s14,6.3,14,14S123.9,106.7,116.2,106.7z M116.2,83.6c-5,0-9,4.1-9,9     s4.1,9,9,9s9-4.1,9-9S121.2,83.6,116.2,83.6z"/>
			<path d="M116.2,100c-4,0-7.3-3.3-7.3-7.3s3.3-7.3,7.3-7.3c1.4,0,2.5,1.1,2.5,2.5s-1.1,2.5-2.5,2.5c-1.3,0-2.3,1-2.3,2.3     s1,2.3,2.3,2.3s2.3-1,2.3-2.3c0-1.4,1.1-2.5,2.5-2.5s2.5,1.1,2.5,2.5C123.5,96.7,120.2,100,116.2,100z"/>
			<path d="M34.7,106.7c-7.7,0-14-6.3-14-14s6.3-14,14-14c7.7,0,14,6.3,14,14S42.4,106.7,34.7,106.7z M34.7,83.6c-5,0-9,4.1-9,9     s4.1,9,9,9c5,0,9-4.1,9-9S39.7,83.6,34.7,83.6z"/>
			<path d="M34.7,100c-4,0-7.3-3.3-7.3-7.3s3.3-7.3,7.3-7.3c1.4,0,2.5,1.1,2.5,2.5s-1.1,2.5-2.5,2.5c-1.3,0-2.3,1-2.3,2.3     s1,2.3,2.3,2.3s2.3-1,2.3-2.3c0-1.4,1.1-2.5,2.5-2.5s2.5,1.1,2.5,2.5C42,96.7,38.7,100,34.7,100z"/>
		</g>
		<path d="M136.5,94.2h-6.7c-1.4,0-2.5-1.1-2.5-2.5s1.1-2.5,2.5-2.5h4.2V78.7c0-10.2-12.1-11.7-13.4-11.9H95.1    c-0.9,0-1.7-0.5-2.2-1.2L81.3,45.9H49.2c-9.8,1.9-15,16.7-15,16.9c-0.3,1-1.3,1.7-2.4,1.7H16v21.3c0,1.9,1.6,3.5,3.5,3.5h2.7    c1.4,0,2.5,1.1,2.5,2.5s-1.1,2.5-2.5,2.5h-2.7c-4.7,0-8.5-3.8-8.5-8.5V61.9c0-1.4,1.1-2.5,2.5-2.5h16.6    c1.9-4.5,7.8-16.6,18.5-18.5c0.1,0,0.3,0,0.4,0h33.8c0.9,0,1.7,0.5,2.2,1.2l11.6,19.8h24.2c0.1,0,0.1,0,0.2,0    c6.2,0.5,18,4.8,18,16.8v13C139,93.1,137.9,94.2,136.5,94.2z"/>
		<path d="M103.8,94.2H47c-1.4,0-2.5-1.1-2.5-2.5s1.1-2.5,2.5-2.5h56.8c1.4,0,2.5,1.1,2.5,2.5S105.2,94.2,103.8,94.2z"/>
		<path d="M45.4,66.9c-2,0-3.9-1.1-4.9-2.9c-1-1.8-0.9-4,0.1-5.7c0.7-1.5,5.1-9.6,11.3-9.6c0,0,0.1,0,0.1,0h35.3    c0.9,0,1.7,0.5,2.2,1.2l7.7,13.2c0.5,0.8,0.5,1.7,0,2.5c-0.4,0.8-1.3,1.3-2.2,1.3l-49.6,0C45.5,66.9,45.5,66.9,45.4,66.9z     M51.9,53.7c-2.6,0-5.8,4.8-6.8,6.9c0,0.1-0.1,0.2-0.2,0.3c-0.2,0.3-0.1,0.5,0,0.7c0.1,0.2,0.2,0.4,0.6,0.3l45.3,0l-4.8-8.2H52.1    C52,53.7,52,53.7,51.9,53.7z"/>
		<path d="M136.2,78h-10.2c-1.1,0-2.1-0.8-2.4-1.8c-1-3.7-0.8-6.7,0.6-8.9c1.5-2.4,3.9-2.9,4.2-2.9c0.4-0.1,0.7,0,1.1,0    c0.3,0.1,7.1,1.9,9.2,10.5c0.2,0.7,0,1.5-0.5,2.1C137.7,77.6,136.9,78,136.2,78z M128,73h4.5c-1.2-2.1-2.8-3.1-3.7-3.5    c-0.2,0.1-0.3,0.3-0.5,0.5C127.9,70.6,127.8,71.7,128,73z"/>
	</g>
	<path d="M21.7,79h-8.2c-1.4,0-2.5-1.1-2.5-2.5v-8.7c0-1.4,1.1-2.5,2.5-2.5h6.6c0.3,0,0.6,0.1,0.9,0.2c1.7,0.7,3,1.9,3.6,3.6   c1.4,3.6-0.4,8-0.7,8.5C23.6,78.4,22.7,79,21.7,79z M16,74h3.9c0.3-1,0.4-2.3,0.1-3.1c-0.1-0.2-0.2-0.4-0.5-0.6H16V74z"/>
</g>
</svg>