<svg width="54" height="54" viewBox="0 0 54 54" fill="none" xmlns="http://www.w3.org/2000/svg">
<g clip-path="url(#clip0)">
<path d="M12.4921 38.2487C12.0551 38.2487 11.701 38.6027 11.701 39.0397V40.6867C11.701 41.1236 12.0551 41.4777 12.4921 41.4777C12.929 41.4777 13.2831 41.1236 13.2831 40.6867V39.0397C13.2831 38.6027 12.929 38.2487 12.4921 38.2487Z" fill="white"/>
<path d="M40.828 38.2487C40.391 38.2487 40.037 38.6027 40.037 39.0397V40.6867C40.037 41.1236 40.391 41.4777 40.828 41.4777C41.265 41.4777 41.619 41.1236 41.619 40.6867V39.0397C41.619 38.6027 41.265 38.2487 40.828 38.2487Z" fill="white"/>
<path d="M6.33097 27.1184H18.8465C20.1357 27.1184 21.1844 26.0696 21.1844 24.7805V20.9485C21.1844 19.6593 20.1357 18.6105 18.8465 18.6105H6.33097C5.04182 18.6105 3.99304 19.6593 3.99304 20.9485V24.7805C3.99304 26.0695 5.04193 27.1184 6.33097 27.1184ZM19.6024 20.9485V24.7805C19.6024 25.1973 19.2633 25.5364 18.8465 25.5364H13.3798V20.1926H18.8465C19.2634 20.1926 19.6024 20.5315 19.6024 20.9485ZM5.57507 20.9485C5.57507 20.5317 5.91416 20.1926 6.33097 20.1926H11.7977V25.5364H6.33097C5.91416 25.5364 5.57507 25.1973 5.57507 24.7805V20.9485Z" fill="white"/>
<path d="M30.6063 30.546V30.0187C30.6063 29.5817 30.2523 29.2277 29.8153 29.2277C29.3784 29.2277 29.0243 29.5817 29.0243 30.0187V30.546C29.0243 30.983 29.3784 31.337 29.8153 31.337C30.2523 31.337 30.6063 30.9829 30.6063 30.546Z" fill="white"/>
<path d="M46.8809 13.3547C47.3178 13.3547 47.6719 13.0006 47.6719 12.5637C47.6719 12.1267 47.3178 11.7727 46.8809 11.7727H45.0731C44.6362 11.7727 44.2821 12.1267 44.2821 12.5637C44.2821 13.0006 44.6362 13.3547 45.0731 13.3547H46.8809Z" fill="white"/>
<path d="M41.7319 13.3547C42.1689 13.3547 42.5229 13.0006 42.5229 12.5637C42.5229 12.1267 42.1689 11.7727 41.7319 11.7727H39.9241C39.4871 11.7727 39.1331 12.1267 39.1331 12.5637C39.1331 13.0006 39.4871 13.3547 39.9241 13.3547H41.7319Z" fill="white"/>
<path d="M27.4146 36.8215C26.9776 36.8215 26.6235 37.1755 26.6235 37.6125C26.6235 38.0494 26.9776 38.4035 27.4146 38.4035H30.1067C30.5437 38.4035 30.8978 38.0494 30.8978 37.6125C30.8978 37.1755 30.5437 36.8215 30.1067 36.8215H27.4146Z" fill="white"/>
<path d="M3.99304 32.673C3.99304 33.4677 4.63967 34.1143 5.43448 34.1143H15.3837C16.1785 34.1143 16.8251 33.4677 16.8251 32.673V31.1964C16.8251 30.4016 16.1785 29.755 15.3837 29.755H5.43448C4.63967 29.755 3.99304 30.4016 3.99304 31.1964V32.673ZM5.57507 31.337H15.2431V32.5323H5.57507V31.337Z" fill="white"/>
<path d="M25.0692 31.0735C24.6323 31.0735 24.2782 31.4275 24.2782 31.8645V34.2551C24.2782 35.108 24.9722 35.8019 25.8251 35.8019H31.6962C32.5492 35.8019 33.243 35.108 33.243 34.2551V23.1106C33.243 22.2576 32.5492 21.5637 31.6962 21.5637H25.8251C24.9722 21.5637 24.2782 22.2576 24.2782 23.1106V28.7004C24.2782 29.1374 24.6323 29.4914 25.0692 29.4914C25.5062 29.4914 25.8602 29.1374 25.8602 28.7004V23.1457H31.661V34.2199H25.8602V31.8645C25.8602 31.4275 25.5062 31.0735 25.0692 31.0735Z" fill="white"/>
<path d="M53.1554 31.9399L47.6719 27.3429V17.0007H48.7786C49.653 17.0007 50.4516 16.5968 50.9696 15.8923C51.4876 15.1878 51.6353 14.3052 51.3748 13.4705L50.4696 10.5705C50.1131 9.42849 49.0697 8.6611 47.8733 8.6611H35.1219C34.1857 8.6611 33.2877 9.05872 32.6586 9.75197L29.9492 12.7373C29.6193 13.1008 29.1484 13.3093 28.6573 13.3093H21.2899V12.633H21.6591C22.096 12.633 22.4501 12.2789 22.4501 11.8419C22.4501 11.405 22.096 11.0509 21.6591 11.0509H21.2891C21.2796 10.6222 20.93 10.2775 20.4989 10.2775C20.0679 10.2775 19.7182 10.6222 19.7087 11.0509H17.1406C17.1311 10.6222 16.7814 10.2775 16.3504 10.2775C15.9193 10.2775 15.5697 10.6222 15.5602 11.0509H12.7108C12.7013 10.6222 12.3517 10.2775 11.9206 10.2775C11.4896 10.2775 11.1399 10.6222 11.1304 11.0509H8.56248C8.55299 10.6222 8.20336 10.2775 7.77231 10.2775C7.34126 10.2775 6.99163 10.6222 6.98214 11.0509H6.61215C6.1752 11.0509 5.82114 11.405 5.82114 11.8419C5.82114 12.2789 6.1752 12.633 6.61215 12.633H6.98129V13.3093H3.60323C1.61641 13.3094 0 14.9258 0 16.9127V20.4562C0 20.8932 0.354059 21.2472 0.791016 21.2472C1.22797 21.2472 1.58203 20.8932 1.58203 20.4562V16.9127C1.58203 15.7982 2.48875 14.8915 3.60323 14.8915H28.6572C29.5937 14.8915 30.4915 14.4937 31.1206 13.8006L33.8299 10.8153C34.16 10.4519 34.6309 10.2432 35.1218 10.2432H47.8733C48.3738 10.2432 48.8104 10.5643 48.9595 11.042L49.8647 13.9418C49.9736 14.2911 49.9118 14.6603 49.6952 14.955C49.4786 15.2496 49.1444 15.4186 48.7787 15.4186H38.5341C38.0971 15.4186 37.743 15.7726 37.743 16.2096C37.743 16.6466 38.0971 17.0006 38.5341 17.0006H46.0898V18.6103H43.314C42.8771 18.6103 42.523 18.9643 42.523 19.4013C42.523 19.8383 42.8771 20.1923 43.314 20.1923H46.0898V25.5361H38.7362C38.208 25.5361 37.7782 25.1064 37.7782 24.5781V21.1504C37.7782 20.6221 38.208 20.1923 38.7362 20.1923H40.1498C40.5868 20.1923 40.9409 19.8383 40.9409 19.4013C40.9409 18.9643 40.5868 18.6103 40.1498 18.6103H38.7362C37.3356 18.6103 36.1961 19.7498 36.1961 21.1504V24.5781C36.1961 25.9787 37.3356 27.1181 38.7362 27.1181H46.0898V27.7118C46.0898 27.9457 46.1933 28.1677 46.3727 28.3179L52.139 33.152C52.3164 33.3006 52.4181 33.5186 52.4181 33.7499V34.6592H50.9591C50.5222 34.6592 50.1681 35.0132 50.1681 35.4502C50.1681 35.8871 50.5222 36.2412 50.9591 36.2412H52.418V38.7272C52.418 39.1573 52.068 39.5072 51.6379 39.5072H47.9034C47.4758 39.5072 47.0666 39.3036 46.8088 38.9625L45.4971 37.2268C44.942 36.4922 44.061 36.0538 43.1404 36.0538H38.5738C37.6532 36.0538 36.7722 36.4922 36.2171 37.2268L35.7941 37.7866C35.7932 37.7877 35.7925 37.7888 35.7917 37.7899L34.9055 38.9626C34.6478 39.3037 34.2385 39.5073 33.811 39.5073H19.5491C19.1215 39.5073 18.7123 39.3037 18.4545 38.9626L17.1428 37.2269C16.5877 36.4923 15.7067 36.0539 14.7861 36.0539H10.2195C9.29886 36.0539 8.41788 36.4923 7.8628 37.2269L7.48121 37.7318C7.48069 37.7324 7.48027 37.733 7.47974 37.7338L6.55109 38.9626C6.29332 39.3037 5.8841 39.5073 5.45653 39.5073H3.60323C2.48875 39.5073 1.58203 38.6006 1.58203 37.4861V23.6203C1.58203 23.1833 1.22797 22.8292 0.791016 22.8292C0.354059 22.8292 0 23.1833 0 23.6203V37.4863C0 39.4732 1.61641 41.0896 3.60323 41.0896H5.45664C6.03292 41.0896 6.59359 40.9177 7.06862 40.609C7.43365 43.2765 9.72591 45.3388 12.492 45.3388C15.2629 45.3388 17.5581 43.2695 17.9172 40.5955C18.3965 40.9124 18.9645 41.0896 19.5489 41.0896H33.811C34.3804 41.0896 34.9345 40.9215 35.4059 40.6196C35.7755 43.2821 38.0655 45.3388 40.828 45.3388C43.6029 45.3388 45.9006 43.2635 46.2547 40.5838C46.7374 40.9079 47.3119 41.0896 47.9033 41.0896H51.6378C52.9404 41.0896 53.9999 40.0299 53.9999 38.7275V33.75C54 33.0498 53.6922 32.39 53.1554 31.9399ZM19.7079 13.3094H17.1415V12.6331H19.7079V13.3094ZM15.5595 13.3094H12.7118V12.6331H15.5595V13.3094ZM8.56332 12.6331H11.1298V13.3094H8.56332V12.6331ZM12.492 43.7567C10.3452 43.7567 8.59855 42.01 8.59855 39.8631C8.59855 39.4292 8.67048 39.0038 8.81065 38.5966L9.12494 38.1808C9.38271 37.8397 9.79193 37.636 10.2195 37.636H14.7861C15.2137 37.636 15.6229 37.8397 15.8806 38.1808L16.1533 38.5416C16.3068 38.9662 16.3856 39.4101 16.3856 39.8632C16.3856 42.0101 14.6391 43.7567 12.492 43.7567ZM40.828 43.7567C38.6811 43.7567 36.9344 42.01 36.9344 39.8631C36.9344 39.4449 37.001 39.0347 37.1309 38.6418L37.4793 38.1808C37.737 37.8397 38.1463 37.636 38.5738 37.636H43.1404C43.568 37.636 43.9772 37.8397 44.235 38.1808L44.472 38.4944C44.6369 38.9329 44.7216 39.3926 44.7216 39.8632C44.7216 42.0101 42.975 43.7567 40.828 43.7567Z" fill="white"/>
</g>
<defs>
<clipPath id="clip0">
<rect width="54" height="54" fill="white"/>
</clipPath>
</defs>
</svg>
