<svg width="54" height="54" viewBox="0 0 54 54" fill="none" xmlns="http://www.w3.org/2000/svg">
<g clip-path="url(#clip0)">
<path d="M24.9948 13.1526C25.4317 13.1526 25.7858 12.7985 25.7858 12.3616V9.4627L28.02 12.698C28.2481 13.0274 28.6302 13.167 28.9936 13.0535C29.3635 12.938 29.6024 12.5944 29.6024 12.1705L29.5515 6.90751C29.5472 6.47055 29.1888 6.11702 28.7529 6.12419C28.3159 6.12841 27.9653 6.48595 27.9695 6.9228L27.9981 9.88246L25.6458 6.47572C25.4491 6.19095 25.09 6.06713 24.7595 6.17007C24.429 6.27311 24.2039 6.57908 24.2039 6.92523V12.3616C24.2038 12.7985 24.558 13.1526 24.9948 13.1526Z" fill="white"/>
<path d="M46.9042 26.595C47.3412 26.595 47.6952 26.2408 47.6952 25.804C47.6952 25.3671 47.3412 25.0129 46.9042 25.0129H44.6302C44.1932 25.0129 43.8392 25.3671 43.8392 25.804V31.2008C43.8392 31.6377 44.1932 31.9918 44.6302 31.9918H46.9042C47.3412 31.9918 47.6952 31.6377 47.6952 31.2008C47.6952 30.7638 47.3412 30.4098 46.9042 30.4098H45.4212V29.2934H46.7365C47.1735 29.2934 47.5275 28.9393 47.5275 28.5024C47.5275 28.0654 47.1735 27.7114 46.7365 27.7114H45.4212V26.595H46.9042Z" fill="white"/>
<path d="M27.7794 46.6674C27.1294 46.4277 26.5229 46.1668 26.3172 46.077C26.2269 45.9968 26.2255 45.8919 26.234 45.8327C26.2449 45.7575 26.3011 45.5732 26.59 45.4863C27.2975 45.2726 27.9651 45.795 27.9874 45.8128C28.3218 46.0894 28.8173 46.0451 29.0971 45.7123C29.3781 45.3778 29.335 44.879 29.0006 44.5978C28.9472 44.553 27.678 43.506 26.1335 43.9715C25.3401 44.2106 24.7784 44.8376 24.6679 45.6082C24.5468 46.4517 25.0353 47.2383 25.5988 47.4896C25.6304 47.5038 26.3837 47.8389 27.2317 48.1518C27.3978 48.213 27.9348 48.4386 27.8755 48.7706C27.8301 49.0247 27.495 49.2991 27.0325 49.2991C26.5217 49.2991 26.0314 49.0944 25.7207 48.7516C25.4274 48.428 24.9271 48.4032 24.6034 48.6966C24.2797 48.9899 24.255 49.4902 24.5484 49.814C25.163 50.4922 26.0684 50.8812 27.0325 50.8812C28.2338 50.8812 29.2434 50.1105 29.4329 49.0488C29.5765 48.2451 29.2174 47.1977 27.7794 46.6674Z" fill="white"/>
<path d="M7.13761 31.3764L8.03874 28.4652L8.93575 31.3769C9.21756 32.2929 10.5218 32.1893 10.6998 31.2969L11.7653 25.9436C11.8505 25.5151 11.5723 25.0987 11.1438 25.0133C10.7153 24.9282 10.2989 25.2062 10.2136 25.6347L9.6676 28.3786L8.79505 25.5464C8.66649 25.1289 8.22363 24.8947 7.80629 25.0233C7.52584 25.1097 7.32872 25.3381 7.26818 25.605L6.40946 28.3794L5.86471 25.6257C5.77991 25.1971 5.36373 24.9183 4.93521 25.0032C4.5067 25.088 4.22794 25.5042 4.31274 25.9327L5.37396 31.2975C5.55273 32.2036 6.85907 32.2783 7.13761 31.3764Z" fill="white"/>
<path d="M24.1315 27.7115H20.2527C19.8159 27.7115 19.4617 28.0656 19.4617 28.5026C19.4617 28.9395 19.8159 29.2936 20.2527 29.2936H24.1315C24.4043 30.2481 25.1575 31.0012 26.1121 31.2741V35.1528C26.1121 35.5897 26.4662 35.9438 26.9031 35.9438C27.3399 35.9438 27.6941 35.5897 27.6941 35.1528V31.2741C28.6486 31.0012 29.4017 30.2481 29.6746 29.2936H33.5533C33.9902 29.2936 34.3443 28.9395 34.3443 28.5026C34.3443 28.0656 33.9902 27.7115 33.5533 27.7115H29.6746C29.6127 27.4949 29.5262 27.2886 29.418 27.0959L27.6808 17.7362C27.6112 17.3614 27.2842 17.0896 26.9031 17.0896C26.5219 17.0896 26.195 17.3615 26.1253 17.7362L24.3881 27.0959C24.2799 27.2885 24.1934 27.4948 24.1315 27.7115ZM26.9031 29.8033C26.1858 29.8033 25.6023 29.2198 25.6023 28.5026C25.6023 27.7978 26.1783 27.2017 26.9031 27.2017C27.6248 27.2017 28.2038 27.7908 28.2038 28.5026C28.2038 29.2197 27.6203 29.8033 26.9031 29.8033ZM26.9031 22.2149L27.5488 25.6935C27.341 25.6457 27.1251 25.6197 26.9031 25.6197C26.6811 25.6197 26.4652 25.6457 26.2574 25.6935L26.9031 22.2149Z" fill="white"/>
<path d="M33.7878 22.4088C33.9901 22.4088 34.1926 22.3316 34.3472 22.177L35.5874 20.9368C35.8963 20.6279 35.8963 20.127 35.5874 19.8182C35.2783 19.5093 34.7776 19.5093 34.4687 19.8182L33.2285 21.0584C32.9195 21.3674 32.9195 21.8682 33.2285 22.177C33.3829 22.3316 33.5854 22.4088 33.7878 22.4088Z" fill="white"/>
<path d="M34.3472 34.8277C34.0381 34.5189 33.5374 34.5189 33.2285 34.8277C32.9195 35.1367 32.9195 35.6375 33.2285 35.9464L34.4687 37.1866C34.6232 37.341 34.8257 37.4182 35.0281 37.4182C35.2305 37.4182 35.433 37.341 35.5875 37.1866C35.8964 36.8776 35.8964 36.3768 35.5875 36.0679L34.3472 34.8277Z" fill="white"/>
<path d="M18.7782 37.4183C18.9806 37.4183 19.1831 37.3411 19.3375 37.1867L20.5777 35.9465C20.8866 35.6375 20.8866 35.1367 20.5777 34.8278C20.2688 34.519 19.7679 34.519 19.4591 34.8278L18.2189 36.068C17.91 36.377 17.91 36.8778 18.2189 37.1867C18.3734 37.341 18.5758 37.4183 18.7782 37.4183Z" fill="white"/>
<path d="M19.4591 22.177C19.6135 22.3315 19.816 22.4088 20.0184 22.4088C20.2208 22.4088 20.4233 22.3316 20.5777 22.177C20.8866 21.8681 20.8866 21.3673 20.5777 21.0584L19.3375 19.8182C19.0286 19.5093 18.5277 19.5093 18.2189 19.8182C17.91 20.1272 17.91 20.628 18.2189 20.9368L19.4591 22.177Z" fill="white"/>
<path d="M45.7673 21.8689C45.6648 21.8689 45.563 21.8721 45.4616 21.8766C43.4787 16.323 39.0825 11.9268 33.5288 9.94423C33.5334 9.84277 33.5366 9.74088 33.5366 9.63826C33.5366 7.39948 32.4207 5.41772 30.7171 4.2159C35.1996 3.92692 40.2138 3.04573 41.8843 1.34536C42.1904 1.0337 42.186 0.532828 41.8743 0.226758C41.5629 -0.079207 41.062 -0.0748828 40.7557 0.236777C39.8276 1.18167 36.1889 2.31536 30.3345 2.65496C29.9387 1.12957 28.5505 0 26.9031 0C25.2558 0 23.8675 1.12957 23.4718 2.65486C17.6174 2.31525 13.9787 1.18157 13.0506 0.236672C12.7444 -0.0749883 12.2435 -0.0793125 11.932 0.226652C11.6203 0.532828 11.6159 1.03359 11.9219 1.34525C13.5924 3.04562 18.6067 3.92681 23.0892 4.2158C21.3855 5.41761 20.2697 7.39948 20.2697 9.63816C20.2697 9.74109 20.2728 9.8434 20.2775 9.94528C19.387 10.2635 18.5172 10.6455 17.6851 11.0868C17.2992 11.2915 17.1522 11.7703 17.3568 12.1562C17.4989 12.4241 17.7729 12.5767 18.0563 12.5767C18.1813 12.5767 18.3082 12.547 18.4263 12.4844C19.1091 12.1224 19.8194 11.8033 20.5463 11.5309C20.7704 12.2822 21.1231 12.9784 21.5808 13.5927C17.1222 15.185 13.5858 18.7213 11.9933 23.1798C11.3792 22.7224 10.6831 22.3696 9.93206 22.1456C11.1112 18.9927 13.1338 16.2471 15.8209 14.1666C16.1663 13.8991 16.2296 13.4022 15.9621 13.0569C15.6948 12.7116 15.1979 12.6482 14.8525 12.9157C11.8506 15.2398 9.61133 18.3281 8.34613 21.8766C8.24435 21.872 8.14215 21.8688 8.03932 21.8688C5.03072 21.8688 2.39347 23.8986 1.62597 26.8049C1.51439 27.2273 1.76646 27.66 2.18875 27.7716C2.61137 27.8836 3.044 27.6312 3.15559 27.2088C3.73988 24.9962 5.74811 23.4509 8.03932 23.4509C10.8246 23.4509 13.0907 25.717 13.0907 28.5024C13.0907 31.2877 10.8246 33.5538 8.03932 33.5538C5.8212 33.5538 3.83038 32.07 3.1982 29.9453C3.07364 29.5267 2.63352 29.2885 2.21438 29.4128C1.79567 29.5375 1.55721 29.9778 1.68187 30.3966C2.51223 33.187 5.12659 35.1359 8.03932 35.1359C8.14183 35.1359 8.2435 35.1327 8.34486 35.1282C10.3277 40.6819 14.724 45.078 20.2777 47.0606C20.2731 47.162 20.2699 47.2639 20.2699 47.3666C20.2699 51.0244 23.2456 54.0002 26.9034 54.0002C30.561 54.0002 33.5368 51.0244 33.5368 47.3666C33.5368 47.2641 33.5336 47.1624 33.5291 47.061C39.0829 45.0781 43.4789 40.6818 45.4615 35.1283C45.563 35.1329 45.6649 35.1361 45.7675 35.1361C47.0581 35.1361 48.3108 34.7636 49.3899 34.0587C49.7557 33.8198 49.8584 33.3296 49.6196 32.9638C49.3807 32.5982 48.8907 32.4953 48.5248 32.7341C47.7036 33.2704 46.7501 33.5539 45.7675 33.5539C42.9822 33.5539 40.716 31.2879 40.716 28.5025C40.716 25.7171 42.9821 23.451 45.7675 23.451C48.5529 23.451 50.8189 25.7171 50.8189 28.5025C50.8189 29.2606 50.6548 29.9898 50.3311 30.6699C50.1435 31.0642 50.3111 31.5363 50.7055 31.724C51.0995 31.9116 51.5719 31.7443 51.7597 31.3496C52.1852 30.4556 52.401 29.4976 52.401 28.5025C52.4006 24.8447 49.4249 21.8689 45.7673 21.8689ZM43.8741 22.1457C43.1231 22.3698 42.4271 22.7225 41.813 23.1799C40.2206 18.7214 36.6842 15.1851 32.2256 13.5928C32.683 12.9788 33.0357 12.2828 33.2598 11.5318C38.1555 13.3658 42.0397 17.2499 43.8741 22.1457ZM26.9031 1.58203C27.901 1.58203 28.7254 2.33118 28.848 3.29632C28.2326 3.10721 27.5796 3.0048 26.9031 3.0048C26.2266 3.0048 25.5736 3.10721 24.9582 3.29632C25.0807 2.33118 25.9053 1.58203 26.9031 1.58203ZM26.9031 4.58684C29.6886 4.58684 31.9546 6.85294 31.9546 9.63826C31.9546 12.4236 29.6886 14.6897 26.9031 14.6897C24.1178 14.6897 21.8517 12.4236 21.8517 9.63826C21.8517 6.85294 24.1178 4.58684 26.9031 4.58684ZM22.8102 14.8526C23.9385 15.7403 25.3595 16.2717 26.9031 16.2717C28.4468 16.2717 29.8678 15.7403 30.9961 14.8526C35.5718 16.2228 39.1826 19.8334 40.553 24.4092C39.6653 25.5376 39.1337 26.9587 39.1337 28.5024C39.1337 30.046 39.6652 31.467 40.5528 32.5953C39.1827 37.1712 35.572 40.7819 30.9963 42.1524C29.868 41.2646 28.4469 40.7331 26.9031 40.7331C25.3595 40.7331 23.9385 41.2645 22.8102 42.1522C18.2345 40.7819 14.6236 37.1713 13.2533 32.5955C14.141 31.4672 14.6726 30.0461 14.6726 28.5024C14.6726 26.9587 14.141 25.5376 13.2533 24.4092C14.6236 19.8334 18.2343 16.2229 22.8102 14.8526ZM9.93216 34.8591C10.6832 34.635 11.3792 34.2823 11.9933 33.8249C13.5858 38.2834 17.1223 41.8196 21.5809 43.4121C21.1235 44.0261 20.7708 44.7221 20.5466 45.4731C15.6507 43.639 11.7665 39.7549 9.93216 34.8591ZM26.9031 52.418C24.1178 52.418 21.8517 50.152 21.8517 47.3664C21.8517 44.5811 24.1178 42.315 26.9031 42.315C29.6886 42.315 31.9546 44.581 31.9546 47.3664C31.9546 50.152 29.6886 52.418 26.9031 52.418ZM33.2598 45.4734C33.0357 44.7224 32.683 44.0265 32.2257 43.4123C36.6842 41.8197 40.2205 38.2834 41.8128 33.8248C42.4269 34.2822 43.1229 34.6349 43.8738 34.859C42.0397 39.7548 38.1556 43.6391 33.2598 45.4734Z" fill="white"/>
</g>
<defs>
<clipPath id="clip0">
<rect width="54" height="54" fill="white"/>
</clipPath>
</defs>
</svg>
