<svg width="54" height="54" viewBox="0 0 54 54" fill="none" xmlns="http://www.w3.org/2000/svg">
<g clip-path="url(#clip0)">
<path d="M30.4874 19.9186C30.782 19.9186 31.0598 19.8452 31.3033 19.7155C31.6887 20.0875 32.213 20.3167 32.7897 20.3167C33.9705 20.3167 34.9312 19.3561 34.9312 18.1754C34.9312 17.7384 34.5771 17.3844 34.1402 17.3844C33.7033 17.3844 33.3492 17.7384 33.3492 18.1754C33.3492 18.4839 33.0982 18.7348 32.7897 18.7348C32.4813 18.7348 32.2304 18.4839 32.2304 18.1754C32.2304 17.7384 31.8763 17.3844 31.4394 17.3844C31.0024 17.3844 30.6484 17.7384 30.6484 18.1754C30.6484 18.2643 30.5761 18.3365 30.4874 18.3365C30.3985 18.3365 30.3262 18.2642 30.3262 18.1754C30.3262 17.7384 29.9722 17.3844 29.5352 17.3844C29.0983 17.3844 28.7443 17.7384 28.7443 18.1754C28.7443 19.1366 29.5263 19.9186 30.4874 19.9186Z" fill="white"/>
<path d="M41.1863 6.50994C41.1863 6.73183 41.0056 6.91239 40.7837 6.91239C40.5618 6.91239 40.3811 6.73183 40.3811 6.50994C40.3811 6.073 40.0271 5.71896 39.5902 5.71896C39.1532 5.71896 38.7992 6.073 38.7992 6.50994C38.7992 6.53789 38.7765 6.56046 38.7487 6.56046C38.7208 6.56046 38.6982 6.53778 38.6982 6.50994C38.6982 6.073 38.3441 5.71896 37.9072 5.71896C37.4703 5.71896 37.1162 6.073 37.1162 6.50994C37.1162 7.41007 37.8485 8.14241 38.7487 8.14241C39.0013 8.14241 39.2406 8.08472 39.4542 7.982C39.8064 8.30029 40.2728 8.49434 40.7837 8.49434C41.878 8.49434 42.7682 7.60412 42.7682 6.50994C42.7682 6.073 42.4142 5.71896 41.9772 5.71896C41.5403 5.71896 41.1863 6.073 41.1863 6.50994Z" fill="white"/>
<path d="M45.4803 24.2172C45.775 24.2172 46.0529 24.1437 46.2964 24.014C46.6817 24.3861 47.206 24.6153 47.7828 24.6153C48.9634 24.6153 49.9241 23.6547 49.9241 22.474C49.9241 22.037 49.5701 21.683 49.1331 21.683C48.6962 21.683 48.3422 22.037 48.3422 22.474C48.3422 22.7824 48.0913 23.0333 47.7828 23.0333C47.4743 23.0333 47.2234 22.7824 47.2234 22.474C47.2234 22.037 46.8694 21.683 46.4324 21.683C45.9955 21.683 45.6414 22.037 45.6414 22.474C45.6414 22.5629 45.5691 22.6351 45.4803 22.6351C45.3915 22.6351 45.3193 22.5628 45.3193 22.474C45.3193 22.037 44.9652 21.683 44.5283 21.683C44.0913 21.683 43.7373 22.037 43.7373 22.474C43.7373 23.4352 44.5192 24.2172 45.4803 24.2172Z" fill="white"/>
<path d="M15.6552 7.29986C15.6552 6.86292 15.3011 6.50888 14.8642 6.50888C14.4272 6.50888 14.0732 6.86292 14.0732 7.29986C14.0732 7.45858 13.9441 7.58766 13.7855 7.58766C13.6268 7.58766 13.4977 7.45858 13.4977 7.29986C13.4977 6.86292 13.1436 6.50888 12.7067 6.50888C12.3454 6.50888 12.0408 6.75113 11.9461 7.08207C11.8515 6.75113 11.5468 6.50888 11.1855 6.50888C10.7486 6.50888 10.3945 6.86292 10.3945 7.29986C10.3945 8.15537 11.0906 8.85143 11.9461 8.85143C12.1681 8.85143 12.3795 8.8046 12.5707 8.72013C12.8977 9.00013 13.3222 9.16961 13.7855 9.16961C14.8165 9.16961 15.6552 8.33086 15.6552 7.29986Z" fill="white"/>
<path d="M8.73834 20.8678C9.033 20.8678 9.3109 20.7943 9.55441 20.6647C9.93978 21.0368 10.464 21.2659 11.0408 21.2659C12.2215 21.2659 13.1821 20.3054 13.1821 19.1246C13.1821 18.6877 12.8281 18.3336 12.3912 18.3336C11.9542 18.3336 11.6002 18.6877 11.6002 19.1246C11.6002 19.4331 11.3493 19.684 11.0408 19.684C10.7323 19.684 10.4814 19.4331 10.4814 19.1246C10.4814 18.6877 10.1274 18.3336 9.69046 18.3336C9.25353 18.3336 8.89949 18.6877 8.89949 19.1246C8.89949 19.2135 8.82714 19.2857 8.73834 19.2857C8.64954 19.2857 8.57719 19.2134 8.57719 19.1246C8.57719 18.6877 8.22315 18.3336 7.78622 18.3336C7.34928 18.3336 6.99524 18.6877 6.99524 19.1246C6.99524 20.0858 7.77725 20.8678 8.73834 20.8678Z" fill="white"/>
<path d="M23.7051 13.3588C23.9998 13.3588 24.2777 13.2853 24.5212 13.1557C24.9066 13.5278 25.4308 13.7569 26.0076 13.7569C27.1883 13.7569 28.1489 12.7964 28.1489 11.6156C28.1489 11.1787 27.7949 10.8246 27.358 10.8246C26.921 10.8246 26.567 11.1787 26.567 11.6156C26.567 11.9241 26.3161 12.175 26.0076 12.175C25.6991 12.175 25.4482 11.9241 25.4482 11.6156C25.4482 11.1787 25.0942 10.8246 24.6573 10.8246C24.2203 10.8246 23.8663 11.1787 23.8663 11.6156C23.8663 11.7045 23.7939 11.7768 23.7051 11.7768C23.6163 11.7768 23.544 11.7044 23.544 11.6156C23.544 11.1787 23.1899 10.8246 22.753 10.8246C22.3161 10.8246 21.962 11.1787 21.962 11.6156C21.962 12.5768 22.744 13.3588 23.7051 13.3588Z" fill="white"/>
<path d="M53.2063 52.4167H52.3222L52.4362 52.3082C52.7526 52.007 52.7649 51.5062 52.4638 51.1898C52.1626 50.8735 51.6619 50.8611 51.3455 51.1622L50.5031 51.9642L50.102 51.3181C49.8715 50.9469 49.3837 50.833 49.0128 51.0632C48.6416 51.2936 48.5275 51.7813 48.7579 52.1523L48.922 52.4167H47.4884L47.6063 49.8533C47.7298 47.1681 47.1086 44.5047 45.81 42.1513C44.5272 39.8263 42.6351 37.9003 40.3354 36.5741C42.4439 34.4533 44.0583 31.8296 44.9824 28.874L45.1829 28.2324C45.5304 28.4705 45.9037 28.6695 46.2932 28.8229C46.9608 29.0858 47.6586 29.2169 48.3561 29.2169C49.1204 29.2169 49.8842 29.0593 50.607 28.7449C51.9893 28.1436 53.0542 27.0418 53.6052 25.6424C54.5597 23.2187 53.741 20.476 51.6144 18.9725C51.611 18.97 51.609 18.9675 51.608 18.9675H51.6079C51.8699 16.4182 50.6252 13.9685 48.5026 12.6479C48.4395 11.3687 47.896 10.1591 46.9687 9.2654C47.3343 7.73344 47.0655 6.09053 46.2276 4.74841C45.9962 4.37781 45.5084 4.26528 45.1377 4.49624C44.7671 4.72753 44.6543 5.21551 44.8855 5.5861C45.5082 6.58347 45.7028 7.80632 45.4194 8.94089C45.2901 9.45819 45.4536 10.0099 45.8459 10.3807C46.2881 10.7985 46.6053 11.3206 46.7779 11.8911C45.3692 11.4991 43.8751 11.5821 42.503 12.141C42.4992 12.1422 42.4878 12.1404 42.483 12.1346C41.9367 11.4722 41.2224 10.9545 40.4171 10.6374C39.3026 10.1984 38.0664 10.1738 36.9376 10.5505C35.9234 7.23534 32.7971 4.89363 29.2175 4.97515C29.8003 3.84469 31.0025 3.24081 32.2112 3.37865C32.7394 3.43992 33.2641 3.21117 33.5814 2.78362C34.4768 1.57765 36.1383 1.22857 37.446 1.97187C37.8873 2.22267 38.2586 2.58156 38.5201 3.01005C38.8587 3.56479 39.5351 3.84237 40.164 3.6846C41.0541 3.46207 41.9742 3.52429 42.8248 3.86494C43.2299 4.02725 43.6905 3.83045 43.8531 3.42474C44.0155 3.01923 43.8185 2.55888 43.4128 2.39647C42.2703 1.93876 41.036 1.8489 39.8392 2.13534C39.4405 1.50098 38.8844 0.969655 38.2278 0.59642C36.2408 -0.532882 33.7191 -0.0137916 32.3409 1.80134C30.5363 1.61477 28.7972 2.50689 27.9004 4.08473C27.6967 4.4432 27.5455 4.82255 27.4457 5.21709C27.2097 5.27741 26.9769 5.34839 26.748 5.43023C25.8201 4.05667 24.2543 3.20738 22.5699 3.20738H22.5568C21.2198 0.952886 18.5275 -0.161335 15.9855 0.495069C14.5271 0.871995 13.2827 1.77793 12.4749 3.04929C11.7471 2.87116 10.9781 2.87664 10.2467 3.06553C8.03378 3.63746 6.5844 5.76518 6.85786 8.02779C5.43189 9.14982 4.80428 11.0006 5.2583 12.7578C5.26125 12.7692 5.26505 12.7804 5.26811 12.7918C3.81957 13.3036 2.71853 14.5849 2.49157 16.1726C0.975009 16.8554 0 18.3576 0 20.0238C0 20.8405 0.2355 21.6344 0.681083 22.3198C0.919219 22.6861 1.4092 22.7897 1.77537 22.5518C2.14165 22.3137 2.24553 21.8238 2.00739 21.4575C1.72897 21.0293 1.58195 20.5336 1.58195 20.0238C1.58195 18.9637 2.21368 18.0095 3.19185 17.5928C3.65969 17.3932 3.98884 16.955 4.05074 16.4493C4.27802 14.5952 6.32654 13.5602 7.95321 14.4618C8.50615 14.7681 9.18439 14.6812 9.64073 14.2455C10.3644 13.5549 11.313 13.1746 12.3116 13.1746C14.0429 13.1746 15.577 14.3397 16.0424 16.0078C16.1797 16.5 16.5767 16.8821 17.0787 17.005C18.4583 17.3432 19.4219 18.5716 19.4219 19.9924C19.4219 21.6549 18.0891 23.0268 16.4193 23.0657C16.4192 23.0657 16.4191 23.0657 16.419 23.0657C16.4186 23.0657 16.4184 23.0657 16.4181 23.0657C16.3943 23.0662 16.3707 23.0675 16.3467 23.0675C15.8923 23.0675 15.4333 22.9621 15.0191 22.7627C14.474 22.4999 13.8211 22.6052 13.3948 23.0247C12.5624 23.8436 11.4222 24.3133 10.2665 24.3133C9.02313 24.3133 7.79258 23.7839 6.93211 22.8116C6.513 22.3378 5.8509 22.1878 5.28456 22.4384C4.91818 22.6007 4.52417 22.6752 4.13111 22.6617C4.131 22.6617 4.12383 22.6614 4.12383 22.6614C3.69217 22.6471 3.324 22.9865 3.30818 23.4231C3.29225 23.8596 3.63669 24.2265 4.07321 24.2426C4.12288 24.2445 4.17245 24.2461 4.22254 24.2461C4.77064 24.2461 5.30513 24.1407 5.81283 23.9327C6.62447 24.8203 7.677 25.4359 8.82623 25.7187L8.95131 27.6656C9.12195 30.3247 8.11087 32.901 6.1772 34.7342C2.94211 37.8014 1.39971 42.2652 2.05147 46.6752L2.89972 52.4165H0.790975C0.354041 52.4165 0 52.7705 0 53.2075C0 53.6444 0.354041 53.9984 0.790975 53.9984H53.2063C53.6432 53.9984 53.9973 53.6444 53.9973 53.2075C53.9973 52.7705 53.6432 52.4167 53.2063 52.4167ZM30.3671 40.2334C29.4781 40.4144 28.6068 40.6709 27.7658 40.9972C27.6614 40.4725 27.5688 39.9459 27.4866 39.4177C28.3239 39.1071 29.1838 38.86 30.0516 38.6833C35.6738 37.5382 40.2313 33.4299 41.9533 27.9582C42.5563 27.9065 43.1532 27.7816 43.7282 27.584L43.4724 28.4021C41.5855 34.4379 36.5638 38.9714 30.3671 40.2334ZM31.5346 52.4167L29.5036 47.0579C29.0794 45.9388 28.7107 44.8029 28.3952 43.6545L29.4476 44.2781C32.4242 46.042 34.5789 49.0388 35.3428 52.4167H31.5346ZM36.8732 33.3254C34.281 29.3018 35.6425 25.4847 35.6491 25.3262C36.4326 26.2766 37.4479 27.0188 38.6278 27.4833C39.1665 27.6953 39.729 27.8393 40.3004 27.9177C39.5743 29.9899 38.3896 31.8291 36.8732 33.3254ZM35.6763 34.3822C35.2586 34.7107 34.8214 35.0147 34.3681 35.295C33.9041 34.6105 33.503 33.8789 33.1734 33.1111C32.0472 30.4878 31.8156 27.6365 32.5035 24.8655L32.8593 23.4325C33.3442 23.6459 33.854 23.8022 34.3742 23.8955L34.0387 25.2467C33.266 28.3589 33.8798 31.7179 35.6763 34.3822ZM31.7198 33.7351C32.0684 34.5474 32.4886 35.3241 32.9725 36.0548C31.9535 36.5369 30.8689 36.9023 29.7359 37.133C29.0294 37.2769 28.3277 37.4635 27.6376 37.6893L27.2329 37.4493C26.876 33.9701 26.9966 30.4426 27.6074 26.9694L27.821 25.7545C28.9299 25.5534 29.9977 25.138 30.9557 24.5367C30.1998 27.6291 30.4632 30.8085 31.7198 33.7351ZM41.2624 13.1414C41.7036 13.676 42.4591 13.8671 43.0998 13.6061C44.3095 13.1131 45.6437 13.105 46.857 13.5828C48.96 14.411 50.2664 16.56 50.0337 18.8093C49.9752 19.3743 50.2309 19.9319 50.7009 20.2642C52.2309 21.3459 52.8198 23.3191 52.1331 25.0629C51.7369 26.0691 50.9708 26.8617 49.9759 27.2943C48.981 27.7271 47.879 27.7473 46.8727 27.3509C46.3147 27.1311 45.8021 26.7799 45.3903 26.3352C44.9322 25.8402 44.2129 25.6827 43.6007 25.9429C42.2053 26.5363 40.6039 26.5612 39.2073 26.0112C38.1225 25.584 37.214 24.8588 36.5684 23.9207C39.7575 23.423 42.2056 20.6579 42.2056 17.3314C42.2056 15.189 41.1946 13.2491 39.5733 12.0188C39.6621 12.0457 39.7504 12.0752 39.8372 12.1093C40.3936 12.3285 40.8864 12.6853 41.2624 13.1414ZM8.62659 13.028C8.07892 12.7425 7.46934 12.5819 6.84827 12.556C6.82686 12.4917 6.80692 12.4272 6.79005 12.3619C6.49064 11.2033 6.91154 9.98203 7.8624 9.25054C8.28362 8.92655 8.50204 8.39734 8.43243 7.86949C8.23637 6.38024 9.18649 4.97336 10.6426 4.59717C11.134 4.4702 11.6505 4.46956 12.1363 4.59517C12.7758 4.76032 13.4388 4.49519 13.7864 3.93539C14.3773 2.98422 15.2988 2.3064 16.3812 2.02661C18.2579 1.54169 20.2465 2.37506 21.2183 4.05267C21.4825 4.50858 21.9751 4.78975 22.5074 4.78975C22.528 4.78975 22.5489 4.78943 22.5698 4.78933C23.6456 4.78933 24.6511 5.29471 25.2986 6.12492C24.823 6.416 24.3745 6.75759 23.9627 7.15044C23.9045 7.20571 23.8109 7.21741 23.7393 7.17765C22.8534 6.68683 21.8454 6.42728 20.8244 6.42728C17.7928 6.42728 15.2288 8.69453 14.8603 11.7012C14.8523 11.7668 14.8103 11.8233 14.7516 11.8484C14.634 11.8985 14.5166 11.9535 14.4002 12.0124C13.7511 11.7416 13.0439 11.5928 12.3114 11.5928C10.9398 11.5927 9.63566 12.1015 8.62659 13.028ZM17.5394 15.4901C17.2392 14.4833 16.6611 13.6111 15.9041 12.9486C16.1902 12.6712 16.3808 12.3005 16.4307 11.8936C16.7021 9.67914 18.591 8.00923 20.8245 8.00923C21.5779 8.00923 22.3207 8.20022 22.9726 8.56133C23.6442 8.93351 24.5003 8.82404 25.0548 8.29493C26.2698 7.13568 27.8374 6.55268 29.4004 6.55268C32.2169 6.55268 34.7126 8.44806 35.4698 11.1618C35.6386 11.767 36.128 12.2373 36.747 12.389C39.0297 12.9484 40.6238 14.9807 40.6238 17.3312C40.6238 21.0673 36.7081 23.5373 33.339 21.9148C32.6689 21.592 31.8607 21.7197 31.3361 22.2357C29.9942 23.5561 28.1554 24.3133 26.2909 24.3133C24.2351 24.3133 22.2746 23.4303 20.9121 21.8907C20.843 21.8127 20.7667 21.743 20.6864 21.6787C20.8905 21.1553 21.0038 20.587 21.0038 19.9923C21.0038 17.8701 19.5836 16.0309 17.5394 15.4901ZM25.0225 51.1898C24.7214 50.8735 24.2205 50.8611 23.9041 51.1622L23.0618 51.9642L22.6607 51.3181C22.4303 50.9469 21.9426 50.833 21.5716 51.0632C21.2004 51.2936 21.0862 51.7812 21.3167 52.1523L21.4808 52.4167H19.694C20.342 49.6383 21.805 47.1411 23.9048 45.222C24.2402 46.4081 24.6269 47.5822 25.0657 48.74L26.4592 52.4167H24.8808L24.9948 52.3082C25.3112 52.0069 25.3236 51.5062 25.0225 51.1898ZM22.9332 26.1476C22.542 28.3729 22.3305 30.6182 22.2939 32.8619C21.0451 30.8615 20.3737 28.5521 20.3737 26.1728V23.5963C21.1705 24.3254 22.0909 24.8963 23.0845 25.2871L22.9332 26.1476ZM18.7919 23.9538V26.1728C18.7919 29.627 20.048 32.9491 22.3344 35.5611C22.3723 36.3722 22.434 37.182 22.5178 37.9894C21.2334 36.8449 20.1321 35.4925 19.285 34.0055C17.9275 31.6233 17.2099 28.9147 17.2099 26.1728V24.5681C17.7805 24.4607 18.3147 24.2494 18.7919 23.9538ZM14.4234 24.2304C14.8064 24.4048 15.2135 24.5262 15.628 24.592V26.1727C15.628 29.1888 16.4173 32.1682 17.9105 34.7885C19.0998 36.8758 20.7426 38.7238 22.6804 40.1599C21.1316 41.2395 19.759 42.5369 18.595 44.025C16.6821 46.471 15.3997 49.3596 14.8616 52.4166H12.1637L12.2777 52.3081C12.5941 52.0069 12.6065 51.5061 12.3054 51.1897C12.0042 50.8733 11.5034 50.861 11.187 51.1621L10.3447 51.9641L9.94351 51.318C9.71307 50.9468 9.22509 50.8329 8.85439 51.0631C8.48316 51.2935 8.36905 51.7812 8.59949 52.1522L8.76359 52.4166H7.69703L6.74607 45.9814C6.32032 43.0997 7.32823 40.1826 9.44224 38.1783C12.4012 35.373 13.9485 31.4304 13.687 27.3616L13.531 24.9284C13.8484 24.7248 14.1478 24.4916 14.4234 24.2304ZM4.49886 52.4167L3.61623 46.444C3.03988 42.5436 4.40415 38.5953 7.26558 35.8823C9.54096 33.7251 10.7308 30.6934 10.5299 27.5644L10.4224 25.8915C10.9548 25.8773 11.4829 25.7912 11.9913 25.6376L12.1085 27.4629C12.3395 31.0618 10.9711 34.5491 8.35386 37.0304C5.86608 39.3889 4.68004 42.8216 5.18121 46.2128L6.09779 52.4166H4.49886V52.4167ZM16.4691 52.4167C16.9892 49.7163 18.1453 47.168 19.841 44.9997C20.7819 43.7969 21.8716 42.73 23.0896 41.8159C23.2012 42.3843 23.3256 42.9505 23.4602 43.5144C20.6952 45.7881 18.8049 48.9124 18.0733 52.4167H16.4691ZM28.1509 52.4167L26.545 48.1793C25.0124 44.1356 24.0844 39.7562 23.9026 35.2067C23.9026 35.2066 23.9026 35.2064 23.9026 35.2063C23.7857 32.2771 23.9796 29.3317 24.4913 26.4214L24.6125 25.7324C25.1289 25.8333 25.6567 25.8879 26.1904 25.894L26.0495 26.6954C24.7963 33.8217 25.5399 41.0633 28.0245 47.6186L29.8429 52.4167H28.1509ZM36.9611 52.4167C36.1744 48.4774 33.7044 44.9617 30.254 42.9172L29.0638 42.212C29.5936 42.0385 30.1345 41.8953 30.6829 41.7836C30.8671 41.746 31.0499 41.7047 31.2322 41.662C33.5143 43.054 35.4169 45.0104 36.7411 47.3343C37.6436 48.9182 38.2581 50.624 38.573 52.4167H36.9611ZM44.3211 52.4167L44.4458 49.7081C44.4568 49.4679 44.46 49.2251 44.4553 48.9656C44.4475 48.5336 44.095 48.1889 43.6648 48.1889C43.6599 48.1889 43.6551 48.1889 43.6502 48.189C43.2134 48.1968 42.8658 48.5573 42.8736 48.9941C42.8776 49.2194 42.8751 49.429 42.8655 49.6352L42.7375 52.4167H40.1759C39.8454 50.3447 39.1547 48.3744 38.1157 46.5511C36.8891 44.3985 35.2114 42.532 33.2135 41.0817C34.3105 40.6942 35.3608 40.2077 36.3554 39.6346C36.8502 40.0047 37.3704 40.3462 37.9087 40.6518C40.0358 41.8597 41.625 43.7944 42.3837 46.0996C42.4933 46.4324 42.8026 46.6434 43.1349 46.6434C43.2168 46.6434 43.3002 46.6306 43.3824 46.6036C43.7974 46.467 44.023 46.0199 43.8864 45.6049C43.0047 42.9259 41.1593 40.6783 38.69 39.2762C38.384 39.1025 38.0846 38.9156 37.7934 38.7178C38.2519 38.3956 38.6968 38.055 39.1243 37.694C39.2401 37.7655 39.3558 37.835 39.4709 37.9004C41.5546 39.0837 43.2676 40.8178 44.4251 42.9155C45.5825 45.0133 46.1362 47.3872 46.0261 49.7806L45.9049 52.4167H44.3211Z" fill="white"/>
</g>
<defs>
<clipPath id="clip0">
<rect width="54" height="54" fill="white"/>
</clipPath>
</defs>
</svg>
