<svg width="54" height="54" viewBox="0 0 54 54" fill="none" xmlns="http://www.w3.org/2000/svg">
<g clip-path="url(#clip0)">
<path d="M10.0814 42.4667L9.86486 42.3419C9.28393 42.0074 8.56443 42.0106 7.98656 42.3507L7.77004 42.4782C7.68218 42.53 7.57239 42.5306 7.4839 42.4796L6.72336 42.0419C6.34484 41.824 5.86116 41.9542 5.64326 42.3329C5.42536 42.7116 5.55561 43.1951 5.93425 43.413L6.69489 43.8508C7.27539 44.1851 7.99489 44.1817 8.57255 43.8416L8.78907 43.7141C8.87735 43.6623 8.98693 43.662 9.07542 43.7128L9.29205 43.8377C9.87329 44.1722 10.5933 44.1687 11.1712 43.8281L11.3848 43.7022C11.4728 43.6502 11.5826 43.6496 11.6713 43.7006L12.429 44.1375C12.5536 44.2093 12.6893 44.2434 12.8234 44.2434C13.0968 44.2434 13.3629 44.1013 13.5093 43.8474C13.7275 43.4688 13.5977 42.9851 13.2192 42.767L12.4615 42.3302C11.8803 41.9949 11.1598 41.9984 10.5815 42.3392L10.3679 42.4651C10.2797 42.5172 10.1699 42.5175 10.0814 42.4667Z" fill="white"/>
<path d="M43.7874 34.5579L43.0297 34.1211C42.4481 33.7858 41.7279 33.7892 41.1499 34.1301L40.9359 34.2561C40.8479 34.308 40.738 34.3085 40.6497 34.2576L40.433 34.1328C39.8521 33.7982 39.1325 33.8016 38.5548 34.1416L38.3381 34.2691C38.2501 34.321 38.1403 34.3213 38.052 34.2706L37.2914 33.8329C36.913 33.615 36.4292 33.7451 36.2113 34.1239C35.9934 34.5025 36.1237 34.9861 36.5023 35.204L37.2631 35.6418C37.8438 35.976 38.5633 35.9723 39.1405 35.6326L39.3574 35.505C39.4454 35.4533 39.5551 35.4529 39.6434 35.5037L39.8602 35.6286C40.4416 35.9634 41.1616 35.9597 41.7391 35.6191L41.953 35.4931C42.0413 35.4413 42.1509 35.4407 42.2394 35.4917L42.9972 35.9286C43.1217 36.0003 43.2575 36.0343 43.3915 36.0343C43.6651 36.0343 43.9311 35.8923 44.0776 35.6383C44.2957 35.2598 44.1658 34.7761 43.7874 34.5579Z" fill="white"/>
<path d="M17.9695 35.3096C18.243 35.3096 18.509 35.1675 18.6555 34.9136C18.8736 34.535 18.7437 34.0514 18.3653 33.8331L17.6076 33.3964C17.026 33.061 16.3058 33.0646 15.7278 33.4054L15.5138 33.5314C15.426 33.5833 15.3161 33.5838 15.2276 33.5329L15.0109 33.4081C14.43 33.0735 13.7105 33.0768 13.1328 33.4169L12.916 33.5444C12.8282 33.5963 12.7184 33.5967 12.6299 33.5458L11.8693 33.1082C11.4907 32.8903 11.0071 33.0204 10.7892 33.3991C10.5713 33.7778 10.7016 34.2614 11.0802 34.4793L11.841 34.9171C12.4217 35.2513 13.1411 35.2476 13.7184 34.9079L13.9353 34.7803C14.0233 34.7286 14.133 34.7282 14.2213 34.779L14.438 34.9039C15.0193 35.2386 15.7395 35.235 16.317 34.8944L16.531 34.7683C16.6191 34.7166 16.7287 34.7159 16.8173 34.767L17.5751 35.2038C17.6996 35.2754 17.8353 35.3096 17.9695 35.3096Z" fill="white"/>
<path d="M30.5152 39.0782C29.9338 38.7428 29.2133 38.7464 28.6355 39.0871L28.4215 39.2132C28.3334 39.2651 28.2236 39.2655 28.1351 39.2146L27.9186 39.0899C27.3375 38.7551 26.6178 38.7587 26.0403 39.0987L25.8239 39.2261C25.7357 39.278 25.626 39.2783 25.5376 39.2276L24.7771 38.7899C24.3986 38.572 23.9149 38.7022 23.697 39.0809C23.4791 39.4595 23.6094 39.9431 23.988 40.161L24.7486 40.5988C25.3292 40.9328 26.0487 40.9296 26.6263 40.5895L26.8429 40.462C26.9308 40.4103 27.0405 40.4099 27.1292 40.4608L27.3458 40.5856C27.9269 40.9203 28.6471 40.9167 29.2246 40.5761L29.4386 40.4501C29.5269 40.398 29.6366 40.3978 29.7251 40.4486L30.4827 40.8855C30.6073 40.9573 30.743 40.9914 30.8771 40.9914C31.1506 40.9914 31.4167 40.8493 31.5631 40.5953C31.7813 40.2168 31.6514 39.7331 31.2729 39.515L30.5152 39.0782Z" fill="white"/>
<path d="M43.7872 43.1292L43.0297 42.6926C42.4481 42.3572 41.7277 42.3608 41.1499 42.7014L40.9359 42.8275C40.8479 42.8794 40.738 42.88 40.6497 42.8289L40.433 42.7042C39.8521 42.3697 39.1327 42.3729 38.5548 42.7129L38.3381 42.8404C38.2499 42.8923 38.1403 42.893 38.052 42.8419L37.2914 42.4042C36.913 42.1863 36.4292 42.3166 36.2113 42.6952C35.9934 43.0738 36.1237 43.5574 36.5023 43.7753L37.2628 44.213C37.8436 44.5473 38.5631 44.5438 39.1405 44.2039L39.3571 44.0764C39.4454 44.0246 39.5551 44.0242 39.6434 44.0751L39.86 44.1998C40.4411 44.5346 41.1613 44.531 41.739 44.1904L41.953 44.0644C42.0411 44.0125 42.1508 44.0121 42.2395 44.0631L42.9973 44.4999C43.1217 44.5716 43.2576 44.6057 43.3915 44.6057C43.6651 44.6057 43.9311 44.4635 44.0776 44.2095C44.2957 43.8311 44.1658 43.3474 43.7872 43.1292Z" fill="white"/>
<path d="M14.7227 48.2346H0.791016C0.354059 48.2346 0 48.5886 0 49.0256C0 49.4625 0.354059 49.8166 0.791016 49.8166H14.7227C15.1597 49.8166 15.5137 49.4625 15.5137 49.0256C15.5137 48.5886 15.1596 48.2346 14.7227 48.2346Z" fill="white"/>
<path d="M0.791016 28.0294C2.19639 28.0294 2.86485 28.4598 3.63878 28.9581C4.49824 29.5115 5.47235 30.1387 7.34295 30.1387C9.21364 30.1387 10.1879 29.5115 11.0473 28.9581C11.8214 28.4598 12.4898 28.0294 13.8952 28.0294C15.3006 28.0294 15.969 28.4598 16.743 28.9581C17.6024 29.5115 18.5766 30.1387 20.4472 30.1387C22.3178 30.1387 23.292 29.5115 24.1515 28.9581C24.9254 28.4598 25.5939 28.0294 26.9992 28.0294C28.4045 28.0294 29.073 28.4598 29.8469 28.9581C30.7064 29.5115 31.6806 30.1387 33.5513 30.1387C35.422 30.1387 36.3963 29.5115 37.2558 28.9581C38.0298 28.4598 38.6983 28.0294 40.1036 28.0294C41.5091 28.0294 42.1777 28.4598 42.9518 28.9581C43.8113 29.5115 44.7856 30.1387 46.6563 30.1387C48.527 30.1387 49.5013 29.5115 50.3608 28.9581C51.1349 28.4598 51.8034 28.0294 53.209 28.0294C53.6459 28.0294 54 27.6753 54 27.2384C54 26.8014 53.6459 26.4473 53.209 26.4473C51.3383 26.4473 50.364 27.0746 49.5045 27.628C48.7304 28.1263 48.0618 28.5567 46.6563 28.5567C46.1488 28.5567 45.7383 28.5 45.3833 28.4048C45.8996 26.8737 46.1994 25.5724 46.2911 24.463C48.1096 24.2736 49.5521 22.7882 49.6507 20.9226C49.7734 18.5872 49.7732 18.6617 49.7665 18.5856C49.5867 16.5355 48.3223 14.6292 46.0094 12.9187L42.2069 9.22913C41.8935 8.92485 41.3926 8.93245 41.0884 9.24601C40.7842 9.55957 40.7918 10.0603 41.1053 10.3645L43.7106 12.8925L28.8048 14.2699C28.6985 13.5586 28.6619 12.8548 28.6629 12.2145C29.0142 12.2755 29.3674 12.3065 29.7192 12.3065C30.9693 12.3064 32.2 11.9248 33.2563 11.1867L35.1905 9.83505C36.1915 9.13537 37.4064 8.86379 38.612 9.07009C39.0429 9.14434 39.4514 8.8544 39.525 8.42377C39.5987 7.99325 39.3094 7.58435 38.8787 7.51073C37.7116 7.31097 36.5379 7.44682 35.4694 7.88978L34.6272 6.47777L36.0085 5.65385C36.3838 5.43004 36.5065 4.94436 36.2827 4.56931C36.0587 4.19405 35.5732 4.0716 35.1982 4.29509L31.0769 6.75346C30.7016 6.97727 30.5789 7.46295 30.8027 7.838C30.9508 8.08627 31.2134 8.22391 31.4827 8.22391C31.6207 8.22391 31.7602 8.18784 31.8872 8.11211L33.2685 7.28819L34.0936 8.67152L32.3501 9.89C31.2868 10.6329 29.9868 10.8892 28.734 10.6157C28.765 9.5717 28.0049 8.6693 26.9532 8.5342C26.4017 8.4629 25.8371 8.62332 25.4046 8.97316C25.1758 9.15836 24.9953 9.38523 24.8672 9.63898C22.391 9.1167 19.7062 8.75484 17.0771 8.57618L16.1097 7.29673C15.8464 6.94826 15.3501 6.87929 15.0017 7.14285C14.6532 7.40632 14.5843 7.90234 14.8478 8.25091L15.0163 8.47376C13.708 8.43327 12.4315 8.43991 11.2243 8.50055C10.2667 8.54854 9.50105 9.18178 9.27366 10.1136C9.04943 11.0325 9.44726 11.9704 10.2636 12.4475L12.1982 13.578L10.5905 13.8029C10.1579 13.8633 9.85627 14.2632 9.9167 14.6959C9.97713 15.1286 10.3759 15.43 10.8097 15.3697L18.594 14.2812C19.6052 14.1398 20.6478 14.3447 21.5303 14.8581L22.3084 15.3109C23.4225 15.9592 24.6902 16.2395 25.9732 16.1204L45.2647 14.3377C46.753 15.4766 47.6645 16.6384 48.0268 17.8639C46.832 17.8639 6.76529 17.8639 5.57466 17.8639L5.29379 17.2072C5.19054 16.9656 5.2053 16.6958 5.3345 16.467C5.4637 16.2382 5.68698 16.0861 5.94717 16.0497L7.37195 15.8505C7.80469 15.79 8.10633 15.3902 8.04589 14.9576C7.98536 14.5247 7.58521 14.223 7.153 14.2836L5.72822 14.4829C4.9758 14.588 4.33012 15.0278 3.95677 15.6893C3.58341 16.3507 3.54059 17.1308 3.83938 17.8292C4.84977 20.4532 5.06377 19.3634 6.38149 25.5851C6.58515 26.5466 6.79461 27.5339 7.04373 28.5491C5.83938 28.492 5.21205 28.0895 4.4955 27.6281C3.63582 27.0747 2.66161 26.4473 0.791016 26.4473C0.354059 26.4473 0 26.8014 0 27.2384C0 27.6753 0.354059 28.0294 0.791016 28.0294ZM26.7513 10.1033C26.9983 10.135 27.1749 10.3522 27.1532 10.5978C27.0677 11.5715 27.0218 12.9685 27.2278 14.4156L26.4115 14.491C26.1183 13.0445 26.1468 11.5597 26.2318 10.5205C26.2532 10.2588 26.49 10.0708 26.7513 10.1033ZM22.3257 13.4906C21.1383 12.7998 19.7355 12.5242 18.3749 12.7143L14.7284 13.2243L11.0618 11.0817C10.7403 10.8939 10.7882 10.5804 10.8105 10.4889C10.8391 10.3722 10.9442 10.0987 11.3036 10.0807C15.4109 9.87492 20.3343 10.2933 24.6062 11.2012C24.5681 12.171 24.5984 13.344 24.8083 14.5258C24.2114 14.4477 23.6343 14.2519 23.1041 13.9435L22.3257 13.4906ZM6.32401 19.4458H48.1444L48.0709 20.8391C48.0097 21.9968 47.0553 22.9015 45.8968 22.9015C44.467 22.9014 39.0246 22.9007 37.3212 22.9005C36.8842 22.9005 36.5302 23.2546 36.5302 23.6915C36.5302 24.1285 36.8842 24.4826 37.3212 24.4826H44.7007C44.611 25.386 44.3609 26.4554 43.945 27.716C43.8996 27.687 43.854 27.6577 43.808 27.6281C42.9486 27.0747 41.9743 26.4474 40.1035 26.4474C38.2329 26.4474 37.2586 27.0747 36.3992 27.6281C35.6251 28.1264 34.9567 28.5568 33.5512 28.5568C32.1457 28.5568 31.4773 28.1264 30.7033 27.6281C29.8439 27.0747 28.8696 26.4474 26.9991 26.4474C25.1285 26.4474 24.1543 27.0747 23.2949 27.6281C22.521 28.1264 21.8525 28.5568 20.4471 28.5568C19.0417 28.5568 18.3733 28.1264 17.5994 27.6281C16.7399 27.0747 15.7657 26.4474 13.8951 26.4474C12.0244 26.4474 11.0502 27.0747 10.1907 27.6281C9.70154 27.943 9.25404 28.2304 8.63652 28.3996C8.368 27.3279 8.14504 26.2778 7.92893 25.2572C7.4868 23.1699 7.06472 21.1762 6.32401 19.4458Z" fill="white"/>
<path d="M53.2092 48.2346H17.887C17.45 48.2346 17.0959 48.5886 17.0959 49.0256C17.0959 49.4625 17.45 49.8166 17.887 49.8166H53.2092C53.6461 49.8166 54.0002 49.4625 54.0002 49.0256C54.0002 48.5886 53.6461 48.2346 53.2092 48.2346Z" fill="white"/>
<path d="M11.7075 24.618C11.8211 24.6749 11.9419 24.7018 12.0607 24.7018C12.3509 24.7018 12.6303 24.5415 12.7689 24.2644L13.929 21.9441C14.1245 21.5533 13.966 21.0782 13.5753 20.8829C13.1843 20.6872 12.7093 20.8459 12.5141 21.2366L11.3539 23.5569C11.1585 23.9475 11.3169 24.4226 11.7075 24.618Z" fill="white"/>
<path d="M15.1248 24.618C15.2384 24.6749 15.3592 24.7018 15.478 24.7018C15.7682 24.7018 16.0476 24.5415 16.1861 24.2644L17.3463 21.9441C17.5417 21.5533 17.3833 21.0782 16.9926 20.8829C16.6017 20.6872 16.1266 20.8459 15.9313 21.2366L14.7712 23.5569C14.5757 23.9475 14.7342 24.4226 15.1248 24.618Z" fill="white"/>
<path d="M18.5421 24.618C18.6557 24.6749 18.7764 24.7018 18.8953 24.7018C19.1855 24.7018 19.4648 24.5415 19.6034 24.2644L20.7636 21.9441C20.959 21.5533 20.8006 21.0782 20.4098 20.8829C20.019 20.6872 19.5438 20.8459 19.3486 21.2366L18.1885 23.5569C17.993 23.9475 18.1514 24.4226 18.5421 24.618Z" fill="white"/>
<path d="M23.6982 24.4825H33.1201C33.5571 24.4825 33.9112 24.1284 33.9112 23.6914C33.9112 23.2545 33.5571 22.9004 33.1201 22.9004H23.6982C23.2612 22.9004 22.9072 23.2545 22.9072 23.6914C22.9072 24.1284 23.2613 24.4825 23.6982 24.4825Z" fill="white"/>
<path d="M38.6961 10.3631C38.437 10.0116 37.9419 9.93659 37.5901 10.1955C37.2384 10.4547 37.1633 10.9498 37.4225 11.3016L38.1608 12.3035C38.3159 12.5139 38.5554 12.6253 38.7982 12.6253C38.9612 12.6253 39.1256 12.5751 39.2668 12.4711C39.6184 12.212 39.6935 11.7168 39.4344 11.3651L38.6961 10.3631Z" fill="white"/>
</g>
<defs>
<clipPath id="clip0">
<rect width="54" height="54" fill="white"/>
</clipPath>
</defs>
</svg>
