<svg width="54" height="54" viewBox="0 0 54 54" fill="none" xmlns="http://www.w3.org/2000/svg">
<g clip-path="url(#clip0)">
<path d="M27.3923 24.3026C26.9553 24.3026 26.6013 24.6566 26.6013 25.0936C26.6013 25.5306 26.9553 25.8846 27.3923 25.8846H28.2828C28.7198 25.8846 29.0739 25.5306 29.0739 25.0936C29.0739 24.6566 28.7198 24.3026 28.2828 24.3026H27.3923Z" fill="white"/>
<path d="M29.2753 47.0487H29.2834C29.7165 47.0487 30.0698 46.6997 30.0742 46.2656C30.0991 43.7834 29.9465 41.612 29.6073 39.6272C29.5338 39.1967 29.126 38.9071 28.6944 38.9808C28.2638 39.0543 27.9743 39.4631 28.0479 39.8938C28.3709 41.7841 28.5162 43.8632 28.4922 46.2497C28.4878 46.6865 28.8383 47.0442 29.2753 47.0487Z" fill="white"/>
<path d="M28.4476 30.7029C28.0112 30.6734 27.634 31.0013 27.6036 31.4372C27.4838 33.1629 27.4971 34.9347 27.6431 36.7033C27.6771 37.1165 28.0232 37.4292 28.4305 37.4292C28.4523 37.4292 28.4744 37.4284 28.4965 37.4266C28.9319 37.3906 29.2557 37.0085 29.2197 36.5731C29.0803 34.8841 29.0676 33.193 29.182 31.5469C29.2121 31.111 28.8834 30.7331 28.4476 30.7029Z" fill="white"/>
<path d="M26.6657 50.9158C27.1027 50.9158 27.4568 50.5618 27.4568 50.1248C27.4568 49.6879 27.1027 49.3338 26.6657 49.3338H25.5407C25.1038 49.3338 24.7497 49.6879 24.7497 50.1248C24.7497 50.5618 25.1038 50.9158 25.5407 50.9158H26.6657Z" fill="white"/>
<path d="M32.3743 39.6273C31.8198 36.3816 31.7224 33.1657 32.0852 30.069C32.3261 27.9999 32.385 27.5287 32.3883 27.4562C32.391 27.4018 32.3902 8.058 32.3902 8.03005C32.3902 7.5931 32.0362 7.23904 31.5992 7.23904C31.1623 7.23904 30.8082 7.5931 30.8082 8.03005V26.6278L25.1908 26.6279C25.3234 25.4795 25.1463 24.416 24.6653 23.4458H25.2952C26.6389 23.4458 27.8244 22.4938 28.1141 21.182C28.2084 20.7554 27.9389 20.3332 27.5123 20.2391C27.0851 20.144 26.6635 20.4144 26.5694 20.8409C26.4385 21.4335 25.9027 21.8638 25.2954 21.8638H23.9764V16.3092C23.9764 13.0247 24.9127 9.82714 26.6014 7.0782V17.8119C26.6014 18.2488 26.9554 18.6029 27.3924 18.6029C27.8293 18.6029 28.1834 18.2488 28.1834 17.8119V4.89352C28.9641 3.97267 29.8416 3.12755 30.8083 2.37862V4.8566C30.8083 5.29356 31.1624 5.64762 31.5993 5.64762C32.0363 5.64762 32.3903 5.29356 32.3903 4.8566V0.790995C32.3903 0.491148 32.2209 0.217034 31.9525 0.0831946C31.6839 -0.0508562 31.3631 -0.0212194 31.1237 0.159027L30.0481 0.96871C27.6836 2.7486 25.7354 5.08916 24.4142 7.73738C23.093 10.3856 22.3945 13.3498 22.3945 16.3092V22.6548C22.3945 22.8463 22.464 23.0315 22.5902 23.1757C23.5894 24.3174 23.8784 25.6412 23.4738 27.2228C23.4144 27.4561 23.4702 27.7042 23.5992 27.8824C23.9939 28.4281 24.3208 29.2109 23.3377 30.4295C23.0894 30.7374 23.1067 31.1815 23.3781 31.4691C23.6601 31.7677 23.988 32.2001 23.9499 32.565C23.9144 32.9053 23.5466 33.2265 23.2442 33.4363C23.0185 33.5927 22.8902 33.8551 22.905 34.1292C23.0799 37.3466 22.8281 40.8226 22.1349 44.7561C22.059 45.1863 22.3464 45.5965 22.7767 45.6724C23.2063 45.7487 23.6172 45.4609 23.693 45.0307C24.3776 41.1456 24.644 37.683 24.5052 34.462C25.115 33.9471 25.457 33.3657 25.5234 32.7293C25.5866 32.1239 25.3944 31.5079 24.9515 30.892C25.5982 29.8728 25.6697 28.965 25.4814 28.2098H30.7103L30.5142 29.885C30.1339 33.1316 30.2351 36.499 30.8152 39.8935C31.2991 42.7258 31.3888 46.0709 31.0898 50.1199C30.9943 51.4086 29.9121 52.4179 28.6262 52.4179H25.2094C24.4535 52.4179 23.7495 52.0792 23.2779 51.4885C22.8081 50.9 22.6342 50.1419 22.8006 49.4087C22.8942 48.9966 22.9859 48.5825 23.073 48.1778C23.165 47.7506 22.8933 47.3299 22.4663 47.238C22.0398 47.1464 21.6184 47.4176 21.5264 47.8447C21.439 48.2508 21.3493 48.6554 21.2579 49.0585C20.9842 50.2635 21.2699 51.5089 22.0417 52.4755C22.8153 53.4444 23.9698 54 25.2095 54H28.6263C30.7363 54 32.5113 52.3469 32.6673 50.2365C32.9759 46.058 32.8801 42.5876 32.3743 39.6273Z" fill="white"/>
</g>
<defs>
<clipPath id="clip0">
<rect width="54" height="54" fill="white"/>
</clipPath>
</defs>
</svg>
