<svg width="54" height="54" viewBox="0 0 54 54" fill="none" xmlns="http://www.w3.org/2000/svg">
<g clip-path="url(#clip0)">
<path d="M23.3756 4.22214H25.9069C26.3438 4.22214 26.6979 3.86808 26.6979 3.43112C26.6979 2.99417 26.3438 2.64011 25.9069 2.64011H23.3756C22.9387 2.64011 22.5846 2.99417 22.5846 3.43112C22.5846 3.86808 22.9388 4.22214 23.3756 4.22214Z" fill="white"/>
<path d="M23.3756 6.64792H25.9069C26.3438 6.64792 26.6979 6.29386 26.6979 5.8569C26.6979 5.41995 26.3438 5.06589 25.9069 5.06589H23.3756C22.9387 5.06589 22.5846 5.41995 22.5846 5.8569C22.5846 6.29386 22.9388 6.64792 23.3756 6.64792Z" fill="white"/>
<path d="M26.9998 37.9329C32.8511 37.9329 37.6115 33.1724 37.6115 27.3212C37.6115 21.4699 32.8511 16.7095 26.9998 16.7095C21.1485 16.7095 16.3882 21.4699 16.3882 27.3212C16.3881 33.1724 21.1485 37.9329 26.9998 37.9329ZM31.8629 27.3212C31.8629 28.2993 31.7737 29.2468 31.6104 30.1372C30.4865 30.4024 29.195 30.5805 27.7907 30.6299V24.0125C29.195 24.0618 30.4864 24.24 31.6104 24.5052C31.7737 25.3957 31.8629 26.3432 31.8629 27.3212ZM33.2976 25.0125C35.0008 25.6543 36.0295 26.5122 36.0295 27.3211C36.0295 28.1301 35.0009 28.988 33.2976 29.6297C33.3938 28.8885 33.4449 28.1165 33.4449 27.3211C33.4449 26.5259 33.3938 25.7539 33.2976 25.0125ZM26.2088 36.2249C24.7824 35.7702 23.5444 34.1144 22.8191 31.859C23.8641 32.0547 25.0027 32.1771 26.2088 32.2145V36.2249ZM27.7908 36.2249V32.2145C28.9971 32.1771 30.1356 32.0547 31.1806 31.859C30.4552 34.1145 29.2173 35.7702 27.7908 36.2249ZM27.7908 22.4279V18.4175C29.2173 18.8721 30.4552 20.5279 31.1806 22.7834C30.1356 22.5877 28.997 22.4652 27.7908 22.4279ZM26.2088 18.4175V22.4279C25.0027 22.4652 23.864 22.5877 22.8191 22.7833C23.5444 20.5279 24.7823 18.8721 26.2088 18.4175ZM26.2088 24.0125V30.6299C24.8046 30.5805 23.5131 30.4024 22.3892 30.1372C22.2259 29.2467 22.1368 28.2993 22.1368 27.3212C22.1368 26.3432 22.2259 25.3957 22.3892 24.5052C23.5131 24.24 24.8045 24.0618 26.2088 24.0125ZM20.7021 29.6298C18.9988 28.9881 17.9701 28.1303 17.9701 27.3212C17.9701 26.5122 18.9987 25.6543 20.7021 25.0125C20.6058 25.7538 20.5547 26.5258 20.5547 27.3212C20.5547 28.1166 20.6058 28.8886 20.7021 29.6298ZM18.4825 30.3194C19.1877 30.7548 20.0504 31.1294 21.0386 31.4285C21.4046 32.903 21.9642 34.2011 22.6682 35.2421C20.7325 34.1793 19.2268 32.4276 18.4825 30.3194ZM31.3313 35.2421C32.0354 34.2011 32.5949 32.903 32.961 31.4285C33.9492 31.1294 34.812 30.7547 35.5171 30.3194C34.7729 32.4276 33.267 34.1793 31.3313 35.2421ZM35.5171 24.323C34.8119 23.8876 33.9492 23.513 32.961 23.2139C32.595 21.7394 32.0354 20.4413 31.3313 19.4003C33.267 20.4631 34.7727 22.2148 35.5171 24.323ZM22.6683 19.4002C21.9642 20.4412 21.4047 21.7393 21.0387 23.2138C20.0505 23.5129 19.1878 23.8876 18.4826 24.3229C19.2268 22.2148 20.7325 20.463 22.6683 19.4002Z" fill="white"/>
<path d="M35.2267 14.98C35.6637 14.98 36.0177 14.6259 36.0177 14.1889C36.0177 13.752 35.6637 13.3979 35.2267 13.3979H18.7732C18.3362 13.3979 17.9822 13.752 17.9822 14.1889C17.9822 14.6259 18.3362 14.98 18.7732 14.98H35.2267Z" fill="white"/>
<path d="M42.0129 8.33541H37.7463V4.05011C37.7463 3.61315 37.3922 3.25909 36.9553 3.25909C36.5183 3.25909 36.1643 3.61315 36.1643 4.05011V8.33541H33.445V5.85689C33.445 5.41993 33.0909 5.06588 32.6539 5.06588C32.217 5.06588 31.8629 5.41993 31.8629 5.85689V8.33541H29.9118V1.58203H34.6594C34.9184 1.58203 35.1638 1.64552 35.3887 1.7705C35.7704 1.9826 36.2521 1.84528 36.4644 1.46359C36.6767 1.08179 36.5393 0.600117 36.1575 0.387914C35.7011 0.134051 35.1831 0 34.6594 0H16.6506C14.9485 0 13.5638 1.3847 13.5638 3.08686V8.3643C11.4173 8.60899 9.74402 10.4355 9.74402 12.6463V27.6715C9.74402 28.1085 10.0981 28.4625 10.535 28.4625C10.972 28.4625 11.326 28.1085 11.326 27.6715V12.6462C11.326 11.1415 12.5501 9.91744 14.0548 9.91744H42.0129C42.3772 9.91744 42.6737 10.2139 42.6737 10.5782V48.283C42.6737 48.6473 42.3772 48.9437 42.0129 48.9437H14.0548C12.5501 48.9437 11.326 47.7197 11.326 46.2149V30.8355C11.326 30.3985 10.972 30.0445 10.535 30.0445C10.0981 30.0445 9.74402 30.3985 9.74402 30.8355V46.2148C9.74402 48.4257 11.4173 50.2522 13.5638 50.4969V50.913C13.5638 52.6152 14.9486 54 16.6506 54H34.6594C36.3616 54 37.7464 52.6152 37.7464 50.913V50.5257H42.013C43.2498 50.5257 44.2558 49.5196 44.2558 48.2829V10.5782C44.2557 9.34147 43.2496 8.33541 42.0129 8.33541ZM28.3297 1.58203V8.33541H20.9529V1.58203H28.3297ZM16.6506 1.58203H19.3709V8.33541H15.1458V3.08686C15.1458 2.25703 15.8208 1.58203 16.6506 1.58203ZM15.1458 50.913V50.5257H19.3709V52.418H16.6506C15.8208 52.418 15.1458 51.743 15.1458 50.913ZM20.9529 52.418V50.5258H28.3297V52.418H20.9529ZM36.1643 50.913C36.1643 51.7429 35.4893 52.418 34.6593 52.418H29.9116V50.5258H36.1642V50.913H36.1643Z" fill="white"/>
<path d="M15.7676 42.2406V44.1451C15.7676 45.103 16.547 45.8824 17.5049 45.8824H31.0721C31.5091 45.8824 31.8632 45.5284 31.8632 45.0914C31.8632 44.6545 31.5091 44.3004 31.0721 44.3004H17.5048C17.4191 44.3004 17.3495 44.2308 17.3495 44.1451V42.2406C17.3495 42.1551 17.4191 42.0854 17.5048 42.0854H36.4952C36.5808 42.0854 36.6504 42.1551 36.6504 42.2406V44.1451C36.6504 44.2308 36.5808 44.3004 36.4952 44.3004H34.2361C33.7991 44.3004 33.4451 44.6545 33.4451 45.0914C33.4451 45.5284 33.7991 45.8824 34.2361 45.8824H36.4952C37.4531 45.8824 38.2324 45.103 38.2324 44.1451V42.2406C38.2324 41.2827 37.4531 40.5034 36.4952 40.5034H17.5048C16.5469 40.5034 15.7676 41.2827 15.7676 42.2406Z" fill="white"/>
</g>
<defs>
<clipPath id="clip0">
<rect width="54" height="54" fill="white"/>
</clipPath>
</defs>
</svg>
