<svg width="54" height="54" viewBox="0 0 54 54" fill="none" xmlns="http://www.w3.org/2000/svg">
<g clip-path="url(#clip0)">
<path d="M23.9992 14.9766H23.1494V11.8906C23.1494 10.5897 22.091 9.53134 20.7902 9.53134H15.1752C14.7383 9.53134 14.3842 9.8854 14.3842 10.3224C14.3842 10.7593 14.7383 11.1134 15.1752 11.1134H20.7902C21.2187 11.1134 21.5674 11.4621 21.5674 11.8906V14.9766H9.43845V11.8906C9.43845 11.4621 9.78724 11.1134 10.2158 11.1134H12.011C12.448 11.1134 12.8021 10.7593 12.8021 10.3224C12.8021 9.8854 12.448 9.53134 12.011 9.53134H10.2159C8.91491 9.53134 7.85653 10.5897 7.85653 11.8906V14.9766H7.00687C6.12357 14.9766 5.40491 15.6951 5.40491 16.5784V51.2255C5.40491 52.7554 6.64954 54 8.17937 54H22.8268C24.3567 54 25.6013 52.7554 25.6013 51.2255V16.5784C25.6012 15.6951 24.8826 14.9766 23.9992 14.9766ZM6.98694 16.5784C6.98694 16.5675 6.9959 16.5586 7.00687 16.5586H23.9992C24.0101 16.5586 24.0191 16.5676 24.0191 16.5784V18.2068H6.98694V16.5784ZM24.0192 51.2255C24.0192 51.8829 23.4843 52.418 22.8267 52.418H8.17926C7.52177 52.418 6.98683 51.8831 6.98683 51.2255V49.7022H11.3443C11.7812 49.7022 12.1353 49.3481 12.1353 48.9112C12.1353 48.4742 11.7812 48.1201 11.3443 48.1201H6.98694V19.7889H24.0192V48.1201H14.5084C14.0715 48.1201 13.7174 48.4742 13.7174 48.9112C13.7174 49.3481 14.0715 49.7022 14.5084 49.7022H24.0192V51.2255Z" fill="white"/>
<path d="M21.4268 44.621V41.8362C21.4268 40.9659 20.7188 40.2579 19.8485 40.2579H11.1574C10.2872 40.2579 9.57916 40.9659 9.57916 41.8362V44.621C9.57916 45.4913 10.2872 46.1993 11.1574 46.1993H19.8485C20.7188 46.1993 21.4268 45.4913 21.4268 44.621ZM11.1574 41.8399L19.8447 41.8362L19.8491 44.6173L11.1612 44.621L11.1574 41.8399Z" fill="white"/>
<path d="M11.2202 6.27719V6.83786C11.2202 7.27482 11.5742 7.62888 12.0112 7.62888C12.4481 7.62888 12.8022 7.27482 12.8022 6.83786V6.27719C12.8022 6.09198 12.9528 5.94138 13.138 5.94138H14.6301C15.6875 5.94138 16.5479 5.08107 16.5479 4.02353V1.9863C16.5479 1.54934 16.1938 1.19528 15.7569 1.19528C15.3199 1.19528 14.9659 1.54934 14.9659 1.9863V4.02353C14.9659 4.20873 14.8153 4.35934 14.6301 4.35934H13.138C12.0806 4.35934 11.2202 5.21965 11.2202 6.27719Z" fill="white"/>
<path d="M10.3448 4.32422C10.7818 4.32422 11.1359 3.97016 11.1359 3.5332C11.1359 3.34905 11.2857 3.19918 11.4699 3.19918H11.5606C12.6171 3.19918 13.4765 2.33972 13.4765 1.28313V0.791016C13.4765 0.354059 13.1225 0 12.6855 0C12.2486 0 11.8945 0.354059 11.8945 0.791016V1.28313C11.8945 1.46728 11.7447 1.61715 11.5606 1.61715H11.4699C10.4133 1.61715 9.55383 2.47662 9.55383 3.5332C9.55383 3.97016 9.908 4.32422 10.3448 4.32422Z" fill="white"/>
<path d="M17.8662 8.23057C18.3031 8.23057 18.6572 7.87651 18.6572 7.43955V6.5166C18.6572 6.18226 18.9292 5.91026 19.2635 5.91026C20.4702 5.91026 21.4519 4.92856 21.4519 3.72189V0.791016C21.4519 0.354059 21.0978 0 20.6609 0C20.2239 0 19.8698 0.354059 19.8698 0.791016V3.72189C19.8698 4.05622 19.5978 4.32823 19.2635 4.32823C18.0568 4.32823 17.0751 5.30993 17.0751 6.5166V7.43955C17.0751 7.87651 17.4292 8.23057 17.8662 8.23057Z" fill="white"/>
<path d="M17.9716 2.6055C18.4086 2.6055 18.7626 2.25144 18.7626 1.81448V0.791016C18.7626 0.354059 18.4086 0 17.9716 0C17.5347 0 17.1806 0.354059 17.1806 0.791016V1.81448C17.1806 2.25144 17.5347 2.6055 17.9716 2.6055Z" fill="white"/>
<path d="M34.7397 34.0642V34.6248C34.7397 35.0618 35.0938 35.4159 35.5308 35.4159C35.9677 35.4159 36.3218 35.0618 36.3218 34.6248V34.0642C36.3218 33.879 36.4724 33.7284 36.6576 33.7284H38.1497C39.2071 33.7284 40.0675 32.8681 40.0675 31.8105V29.7733C40.0675 29.3363 39.7134 28.9823 39.2765 28.9823C38.8395 28.9823 38.4855 29.3363 38.4855 29.7733V31.8105C38.4855 31.9957 38.3349 32.1463 38.1497 32.1463H36.6576C35.6002 32.1463 34.7397 33.0066 34.7397 34.0642Z" fill="white"/>
<path d="M33.8646 32.1112C34.3016 32.1112 34.6556 31.7571 34.6556 31.3202C34.6556 31.136 34.8055 30.9862 34.9897 30.9862H35.0804C36.1368 30.9862 36.9963 30.1268 36.9963 29.0702V28.578C36.9963 28.141 36.6423 27.787 36.2053 27.787C35.7683 27.787 35.4143 28.141 35.4143 28.578V29.0702C35.4143 29.2543 35.2645 29.4042 35.0804 29.4042H34.9897C33.9331 29.4042 33.0736 30.2637 33.0736 31.3202C33.0736 31.7571 33.4278 32.1112 33.8646 32.1112Z" fill="white"/>
<path d="M41.3859 36.0176C41.8228 36.0176 42.1769 35.6636 42.1769 35.2266V34.3037C42.1769 33.9693 42.4489 33.6973 42.7832 33.6973C43.9899 33.6973 44.9716 32.7156 44.9716 31.509V28.578C44.9716 28.141 44.6175 27.787 44.1806 27.787C43.7436 27.787 43.3896 28.141 43.3896 28.578V31.509C43.3896 31.8433 43.1176 32.1153 42.7832 32.1153C41.5766 32.1153 40.5948 33.097 40.5948 34.3037V35.2266C40.5948 35.6636 40.9489 36.0176 41.3859 36.0176Z" fill="white"/>
<path d="M41.4913 30.3926C41.9283 30.3926 42.2823 30.0385 42.2823 29.6015V28.578C42.2823 28.141 41.9283 27.787 41.4913 27.787C41.0544 27.787 40.7003 28.141 40.7003 28.578V29.6015C40.7003 30.0385 41.0544 30.3926 41.4913 30.3926Z" fill="white"/>
<path d="M36.0422 40.7501C35.6053 40.7501 35.2512 41.1042 35.2512 41.5411C35.2512 41.9781 35.6053 42.3322 36.0422 42.3322H42.0028C42.4398 42.3322 42.7938 41.9781 42.7938 41.5411C42.7938 41.1042 42.4398 40.7501 42.0028 40.7501H36.0422Z" fill="white"/>
<path d="M47.8041 43.4134C48.241 43.4134 48.5951 43.0594 48.5951 42.6224V38.3639C48.5951 37.9269 48.241 37.5729 47.8041 37.5729H30.2412C29.8043 37.5729 29.4502 37.9269 29.4502 38.3639V48.8516C29.4502 51.6904 31.7596 53.9999 34.5984 53.9999H43.4467C46.2855 53.9999 48.5951 51.6904 48.5951 48.8516V45.7865C48.5951 45.3495 48.241 44.9954 47.8041 44.9954C47.3671 44.9954 47.0131 45.3495 47.0131 45.7865V48.8516C47.0131 50.8182 45.4132 52.4179 43.4467 52.4179H34.5984C32.632 52.4179 31.0322 50.8181 31.0322 48.8516V39.1549H47.0131V42.6224C47.0131 43.0594 47.3672 43.4134 47.8041 43.4134Z" fill="white"/>
</g>
<defs>
<clipPath id="clip0">
<rect width="54" height="54" fill="white"/>
</clipPath>
</defs>
</svg>
