<svg width="20" height="16" viewBox="0 0 20 16" fill="none" xmlns="http://www.w3.org/2000/svg">
<path d="M0 7.99988C0 7.5515 0.328325 7.18094 0.754303 7.12229L0.872727 7.11421L16.2144 7.11467L10.6717 1.51329C10.3302 1.16815 10.329 0.607379 10.6691 0.260757C10.9782 -0.0543518 11.463 -0.0839977 11.8052 0.172519L11.9033 0.25806L18.9433 7.3718L18.9605 7.39045C18.9784 7.40957 18.9955 7.42951 19.0116 7.45019L18.9433 7.3718C18.9772 7.40607 19.0078 7.44247 19.035 7.48057C19.0514 7.5045 19.0674 7.52936 19.0821 7.55503C19.1154 7.61216 19.1411 7.67194 19.1601 7.73341C19.1665 7.75508 19.1725 7.77721 19.1776 7.79967C19.1818 7.8168 19.1852 7.83423 19.1881 7.85172C19.191 7.87068 19.1935 7.88965 19.1954 7.9088C19.1976 7.92801 19.199 7.94766 19.1997 7.96732C19.1998 7.97822 19.2 7.98903 19.2 7.99988L19.1997 8.02929C19.199 8.0511 19.1975 8.07289 19.1952 8.09462L19.2 7.99988C19.2 8.05046 19.1958 8.10004 19.1878 8.1483C19.1842 8.17029 19.1797 8.19237 19.1743 8.21428C19.17 8.2317 19.1652 8.2488 19.16 8.26568C19.1539 8.28573 19.1468 8.30593 19.139 8.32591C19.1309 8.34654 19.1222 8.36669 19.1127 8.38644C19.1055 8.40155 19.0975 8.41713 19.089 8.43252C19.073 8.46137 19.056 8.48845 19.0377 8.51447C19.0348 8.51855 19.0315 8.52304 19.0283 8.52751C18.9992 8.56704 18.969 8.60191 18.9363 8.63421L11.9033 15.7419C11.5618 16.087 11.0092 16.0859 10.6691 15.7393C10.3599 15.4242 10.3328 14.9321 10.587 14.5859L10.6717 14.4868L16.2133 8.8864L0.872727 8.88556C0.390733 8.88556 0 8.48903 0 7.99988Z" fill="white"/>
</svg>
