<svg xmlns="http://www.w3.org/2000/svg" width="17.5" height="14.5" viewBox="0 0 17.5 14.5">
  <g id="photo-camera" transform="translate(0.25 0.25)">
    <path id="Path_7" data-name="Path 7" d="M15.506,43.6H12.627l-.371-1.819A.994.994,0,0,0,11.279,41H5.721a.994.994,0,0,0-.977.785L4.373,43.6H1.494A1.482,1.482,0,0,0,0,45.07v8.465A1.482,1.482,0,0,0,1.494,55H15.506A1.482,1.482,0,0,0,17,53.535V45.07A1.482,1.482,0,0,0,15.506,43.6ZM5.721,41.977h5.558l.332,1.628H5.389ZM16,53.535a.494.494,0,0,1-.5.488H1.494a.494.494,0,0,1-.5-.488V45.07a.494.494,0,0,1,.5-.488H15.506a.494.494,0,0,1,.5.488Z" transform="translate(0 -41)" fill="#fff" stroke="#fff" stroke-width="0.5"/>
    <path id="Path_8" data-name="Path 8" d="M148.688,185a3.688,3.688,0,1,0,3.688,3.688A3.692,3.692,0,0,0,148.688,185Zm0,6.379a2.691,2.691,0,1,1,2.691-2.691A2.694,2.694,0,0,1,148.688,191.379Z" transform="translate(-140.188 -180.501)" fill="#fff" stroke="#fff" stroke-width="0.5"/>
    <path id="Path_9" data-name="Path 9" d="M67.093,185H65.5a.5.5,0,0,0,0,1h1.595a.5.5,0,0,0,0-1Z" transform="translate(-62.841 -180.319)" fill="#fff" stroke="#fff" stroke-width="0.5"/>
  </g>
</svg>
