<svg width="18" height="19" viewBox="0 0 18 19" fill="none" xmlns="http://www.w3.org/2000/svg">
<path fill-rule="evenodd" clip-rule="evenodd" d="M1.8 2.80664H16.2C17.19 2.80664 18 3.58101 18 4.54679V14.9877C18 15.9487 17.1941 16.7278 16.2 16.7278H1.8C0.805887 16.7278 0 15.9487 0 14.9877V4.54679C0 3.58101 0.801 2.80664 1.8 2.80664ZM16.2 6.28694H1.8V4.54679H16.2V6.28694ZM16.2 14.9877H1.8V9.76724H16.2V14.9877Z" fill="black"/>
<mask id="mask0" mask-type="alpha" maskUnits="userSpaceOnUse" x="0" y="2" width="18" height="15">
<path fill-rule="evenodd" clip-rule="evenodd" d="M1.8 2.80664H16.2C17.19 2.80664 18 3.58101 18 4.54679V14.9877C18 15.9487 17.1941 16.7278 16.2 16.7278H1.8C0.805887 16.7278 0 15.9487 0 14.9877V4.54679C0 3.58101 0.801 2.80664 1.8 2.80664ZM16.2 6.28694H1.8V4.54679H16.2V6.28694ZM16.2 14.9877H1.8V9.76724H16.2V14.9877Z" fill="white"/>
</mask>
<g mask="url(#mask0)">
<rect y="0.873138" width="18" height="17.4015" fill="#FACD5D"/>
</g>
</svg>
