<svg width="66" height="70" viewBox="0 0 66 70" fill="none" xmlns="http://www.w3.org/2000/svg">
<path d="M36.0155 50.0389C37.5339 50.0389 38.7648 48.8147 38.7648 47.3046C38.7648 45.7944 37.5339 44.5702 36.0155 44.5702C34.4971 44.5702 33.2662 45.7944 33.2662 47.3046C33.2662 48.8147 34.4971 50.0389 36.0155 50.0389Z" fill="#567DF4"/>
<path d="M45.2256 64.5309H10.9971C7.96521 64.5309 5.49856 62.0776 5.49856 59.0622V36.6404C5.49856 33.6249 7.96521 31.1716 10.9971 31.1716H50.5867C51.2127 31.1716 51.7094 31.2266 52.1053 31.3394C53.5649 31.7553 55.0872 30.9156 55.5055 29.4639C55.9236 28.0122 55.0793 26.4982 53.6197 26.0822C52.7244 25.827 51.7323 25.703 50.5867 25.703H47.2825V16.0598C47.2825 7.20437 39.8825 0 30.7868 0C21.6911 0 14.2912 7.20437 14.2912 16.0598V25.703H10.9971C4.93331 25.703 0 30.6096 0 36.6405V59.0623C0 65.0932 4.93331 69.9998 10.9971 69.9998H45.2256C46.7441 69.9998 47.9749 68.7756 47.9749 67.2654C47.9749 65.7552 46.7441 64.531 45.2256 64.5309ZM19.7897 16.0598C19.7897 10.2198 24.723 5.46873 30.7868 5.46873C36.8506 5.46873 41.7839 10.2198 41.7839 16.0598V25.703H19.7897V16.0598Z" fill="#567DF4"/>
<path d="M25.7057 50.0389C27.2241 50.0389 28.455 48.8147 28.455 47.3046C28.455 45.7944 27.2241 44.5702 25.7057 44.5702C24.1873 44.5702 22.9564 45.7944 22.9564 47.3046C22.9564 48.8147 24.1873 50.0389 25.7057 50.0389Z" fill="#567DF4"/>
<path d="M65.9976 45.2824C65.9374 39.9792 61.5809 35.6834 56.2348 35.6834C50.8514 35.6834 46.4714 40.0395 46.4714 45.3938C46.4714 46.904 47.7023 48.1282 49.2207 48.1282C50.7391 48.1282 51.97 46.904 51.97 45.3938C51.97 43.055 53.8832 41.1521 56.2349 41.1521C58.5867 41.1521 60.4998 43.055 60.4998 45.3938C60.4998 45.4187 60.5 45.4434 60.5007 45.468C60.4724 47.1424 59.4611 48.6414 57.9076 49.3009C55.2214 50.4418 53.4857 53.0768 53.4857 56.0139V58.3786C53.4857 59.8888 54.7165 61.113 56.2349 61.113C57.7534 61.113 58.9842 59.8888 58.9842 58.3786V56.0139C58.9842 55.2705 59.4093 54.6097 60.0668 54.3305C63.672 52.7998 66.0009 49.2918 66 45.3932C66 45.3561 65.9991 45.3191 65.9976 45.2824Z" fill="#567DF4"/>
<path d="M56.2228 70C57.7412 70 58.9721 68.7758 58.9721 67.2656C58.9721 65.7555 57.7412 64.5313 56.2228 64.5313C54.7044 64.5313 53.4735 65.7555 53.4735 67.2656C53.4735 68.7758 54.7044 70 56.2228 70Z" fill="#567DF4"/>
<path d="M15.3959 50.0389C16.9143 50.0389 18.1452 48.8147 18.1452 47.3046C18.1452 45.7944 16.9143 44.5702 15.3959 44.5702C13.8775 44.5702 12.6466 45.7944 12.6466 47.3046C12.6466 48.8147 13.8775 50.0389 15.3959 50.0389Z" fill="#567DF4"/>
</svg>
