<svg width="16" height="16" viewBox="0 0 16 16" fill="none" xmlns="http://www.w3.org/2000/svg">
<path d="M3.55839 12.6666H5.21363C5.34572 12.6666 5.47218 12.605 5.5593 12.4993L7.99861 9.46161L10.4379 12.4993C10.5222 12.605 10.6487 12.6666 10.7836 12.6666H12.4388C12.6299 12.6666 12.7339 12.4348 12.6102 12.2822L9.1733 7.99998L12.6131 3.7178C12.7367 3.56518 12.6327 3.33331 12.4416 3.33331H10.7864C10.6543 3.33331 10.5278 3.39495 10.4407 3.50061L7.99861 6.53834L5.5593 3.50061C5.47499 3.39495 5.34853 3.33331 5.21363 3.33331H3.55839C3.36729 3.33331 3.26331 3.56518 3.38696 3.7178L6.82392 7.99998L3.38696 12.2822C3.35926 12.3162 3.34149 12.3578 3.33576 12.402C3.33003 12.4463 3.33658 12.4913 3.35463 12.5318C3.37268 12.5723 3.40147 12.6065 3.43759 12.6304C3.47371 12.6543 3.51563 12.6669 3.55839 12.6666Z" fill="#fff"/>
</svg>
