<svg width="42" height="42" viewBox="0 0 42 42" fill="none" xmlns="http://www.w3.org/2000/svg">
<path d="M2.48145 23.4638V19.6174C2.48145 18.8174 2.59227 18.0396 2.79809 17.2983H1.23047C0.550922 17.2983 0 17.8493 0 18.5288V23.4638C0 24.1434 0.550922 24.6943 1.23047 24.6943H2.56946C2.51188 24.2922 2.48145 23.8815 2.48145 23.4638Z" fill="#404f94"/>
<path d="M40.7695 17.2983H39.2019C39.4077 18.0396 39.5185 18.8174 39.5185 19.6174V23.4638C39.5185 23.8815 39.4881 24.2922 39.4305 24.6943H40.7695C41.4491 24.6943 42 24.1434 42 23.4638V18.5288C42 17.8493 41.4491 17.2983 40.7695 17.2983Z" fill="#404f94"/>
<path d="M37.0577 23.4638V19.6174C37.0577 16.7902 35.1506 14.3379 32.4132 13.632L29.5996 23.7994C29.4487 24.3446 28.9537 24.702 28.4144 24.702C28.3058 24.702 28.1954 24.6875 28.0855 24.6571C27.4306 24.4759 27.0465 23.798 27.2278 23.1431L30.0024 13.1168C29.2992 12.9898 28.5769 12.878 27.8378 12.7823L26.1567 18.857C26.0059 19.4022 25.5109 19.7596 24.9715 19.7596C24.8629 19.7596 24.7525 19.7451 24.6427 19.7147C23.9877 19.5335 23.6037 18.8556 23.785 18.2007L25.3556 12.5251C23.94 12.4136 22.482 12.356 21.0002 12.356C16.8964 12.356 12.9694 12.7919 9.64367 13.6166C6.87578 14.3031 4.94263 16.7706 4.94263 19.6174V23.4638C4.94263 26.8716 7.71504 29.644 11.1229 29.644H14.0076C15.6584 29.644 17.2103 29.0012 18.3776 27.8339L21.0002 25.2113L23.6227 27.8339C24.79 29.0012 26.342 29.644 27.9928 29.644H30.8775C34.2853 29.644 37.0577 26.8716 37.0577 23.4638Z" fill="#404f94"/>
</svg>
