<svg width="42" height="42" viewBox="0 0 42 42" fill="none" xmlns="http://www.w3.org/2000/svg">
<path d="M3.11366 14.8477H12.4537C12.4258 14.4462 12.388 14.0552 12.388 13.6233C12.388 10.2382 13.3083 7.41646 14.7666 5.1308C14.3898 5.05934 14.0081 5.00391 13.6172 5.00391C11.6103 5.00391 9.7457 5.99661 8.60623 7.60551C8.23164 7.51163 7.84937 7.46484 7.46484 7.46484C4.75044 7.46484 2.54297 9.67232 2.54297 12.3867C2.54297 12.9478 2.63782 13.4993 2.82303 14.027L3.11366 14.8477Z" fill="#404f94"/>
<path d="M11.0742 19.7695C9.06734 19.7695 7.20273 20.7622 6.06326 22.3711C5.68867 22.2773 5.3064 22.2305 4.92188 22.2305C2.20747 22.2305 0 24.4379 0 27.1523C0 27.7134 0.0948486 28.2649 0.28006 28.7926L0.570694 29.6133H16.0464L16.4021 29.0003C16.9417 28.0691 17.2266 27.0059 17.2266 25.9219C17.2266 22.5298 14.4663 19.7695 11.0742 19.7695Z" fill="#404f94"/>
<path d="M28.3828 0C32.3796 0 34.5352 7.05501 34.5352 13.6172C34.5352 17.8578 33.8946 19.9692 33.2182 22.2052C32.7971 23.592 32.3709 25.0583 32.0367 27.1523H35.6599C36.3398 25.6095 37.2553 24.3392 38.2109 23.0489C40.0338 20.5889 42 18.0462 42 13.6172C42 6.15395 35.8461 0 28.3828 0Z" fill="#404f94"/>
<path d="M30.8629 21.4903C31.5131 19.3453 32.0742 17.4938 32.0742 13.6172C32.0742 6.85698 29.8885 2.54297 28.3828 2.54297C26.6764 2.54297 24.6926 7.38313 24.6926 13.6233C24.6926 17.6053 25.2668 19.3994 25.9327 21.4758C26.4009 22.9389 26.9132 24.6264 27.2622 27.1523H29.5501C29.9199 24.6779 30.413 22.9726 30.8629 21.4903Z" fill="#404f94"/>
<path d="M14.8489 13.6233C14.8489 18.2183 16.7138 20.577 18.5163 22.8588C19.5416 24.156 20.5196 25.4409 21.2159 27.1523H24.7814C24.4645 25.0279 24.0242 23.5862 23.5884 22.2269C22.8915 20.0483 22.2317 17.9898 22.2317 13.6233C22.2317 6.89415 24.344 0 28.3828 0C22.9251 0 14.8489 4.38643 14.8489 13.6233Z" fill="#404f94"/>
<path d="M34.8761 29.6133H32.3812C32.245 30.3791 32.1389 31.1818 32.1079 32.0742H24.6558C24.6264 31.1764 24.5318 30.3746 24.411 29.6133H21.9203C22.0584 30.3593 22.1638 31.1575 22.1971 32.0742H19.7695V34.5352H22.2305V42H34.5352V34.5352H36.9961V32.0742H34.5675C34.6028 31.1674 34.7184 30.3637 34.8761 29.6133Z" fill="#404f94"/>
</svg>
