<svg width="16" height="18" viewBox="0 0 16 18" fill="none" xmlns="http://www.w3.org/2000/svg">
<path fill-rule="evenodd" clip-rule="evenodd" d="M1.53259 7.65942C1.5446 4.1256 4.41906 1.2706 7.95288 1.28257C11.4867 1.29461 14.3417 4.16908 14.3297 7.7029V7.77536C14.2862 10.0725 13.0036 12.1957 11.4311 13.8551C10.5319 14.7889 9.5276 15.6157 8.43839 16.3188C8.14715 16.5708 7.71514 16.5708 7.4239 16.3188C5.80015 15.262 4.37504 13.9276 3.21375 12.3768C2.17872 11.0245 1.59106 9.38311 1.53259 7.68116V7.65942Z" stroke="#404f94" stroke-width="1.5" stroke-linecap="round" stroke-linejoin="round"/>
<path opacity="0.4" d="M7.9311 9.83333C9.06368 9.83333 9.98182 8.91519 9.98182 7.78261C9.98182 6.65002 9.06368 5.73188 7.9311 5.73188C6.79851 5.73188 5.88037 6.65002 5.88037 7.78261C5.88037 8.91519 6.79851 9.83333 7.9311 9.83333Z" stroke="#404f94" stroke-width="1.5" stroke-linecap="round" stroke-linejoin="round"/>
</svg>
