<svg width="42" height="42" viewBox="0 0 42 42" fill="none" xmlns="http://www.w3.org/2000/svg">
<path d="M23.6686 10.2539C25.9302 10.2539 27.7701 8.41397 27.7701 6.15234C27.7701 3.89072 25.9302 2.05078 23.6686 2.05078C21.407 2.05078 19.567 3.89072 19.567 6.15234C19.567 8.41397 21.407 10.2539 23.6686 10.2539Z" fill="#404f94"/>
<path d="M26.2869 23.046L31.7189 32.4325H39.7554L33.6174 21.8011L28.6071 24.1194L26.2869 23.046Z" fill="#404f94"/>
<path d="M21.7536 20.1259L15.6481 22.9508L9.45982 20.0877L2.3324 32.4325H28.8756L21.7536 20.1259Z" fill="#404f94"/>
<path d="M20.5159 17.987L15.5885 9.47237L10.6952 17.9475L15.6481 20.2393L20.5159 17.987Z" fill="#404f94"/>
<path d="M0 34.8934H42V39.9492H0V34.8934Z" fill="#404f94"/>
<path d="M28.6071 21.4079L32.3821 19.6612L28.6071 13.1228L24.832 19.6612L28.6071 21.4079Z" fill="#404f94"/>
</svg>
