<svg xmlns="http://www.w3.org/2000/svg" width="19.6" height="20.6" viewBox="0 0 19.6 20.6">
  <g id="pin_1_" data-name="pin (1)" transform="translate(1.3 0.3)">
    <path id="Path_198" data-name="Path 198" d="M25.5,17A2.5,2.5,0,1,0,23,14.5,2.5,2.5,0,0,0,25.5,17Zm0-4.286A1.786,1.786,0,1,1,23.714,14.5,1.788,1.788,0,0,1,25.5,12.714Z" transform="translate(-17 -9)" fill="#fff" stroke="#fff" stroke-width="0.4"/>
    <path id="Path_199" data-name="Path 199" d="M16.147,16l4.4-6.474a6.478,6.478,0,0,0-.511-7.884,5.429,5.429,0,0,0-7.779,0,6.476,6.476,0,0,0-.517,7.875ZM12.663,2.054a4.863,4.863,0,0,1,6.968,0,5.852,5.852,0,0,1,.451,7.129l-3.935,5.789-3.941-5.8A5.85,5.85,0,0,1,12.663,2.054Z" transform="translate(-7.646 0)" fill="#fff" stroke="#fff" stroke-width="0.6"/>
    <path id="Path_200" data-name="Path 200" d="M13.337,43a.327.327,0,0,0-.351.316.353.353,0,0,0,.277.4c3.33.446,5.1,1.649,5.1,2.346,0,.979-3.373,2.344-8.867,2.344S.633,47.043.633,46.065c0-.7,1.774-1.9,5.1-2.346a.354.354,0,0,0,.277-.4A.327.327,0,0,0,5.663,43C2.329,43.449,0,44.708,0,46.065c0,1.523,3.263,3.065,9.5,3.065S19,47.588,19,46.065C19,44.708,16.671,43.449,13.337,43Z" transform="translate(-1 -29.13)" fill="#fff" stroke="#fff" stroke-width="0.6"/>
  </g>
</svg>
