<svg width="18" height="19" viewBox="0 0 18 19" fill="none" xmlns="http://www.w3.org/2000/svg">
<path fill-rule="evenodd" clip-rule="evenodd" d="M13 5.82267C13 3.68699 11.2091 1.95567 9 1.95567C6.79086 1.95567 5 3.68699 5 5.82267C5 7.95835 6.79086 9.68967 9 9.68967C11.2091 9.68967 13 7.95835 13 5.82267ZM7 5.82267C7 4.75483 7.89543 3.88917 9 3.88917C10.1046 3.88917 11 4.75483 11 5.82267C11 6.89051 10.1046 7.75617 9 7.75617C7.89543 7.75617 7 6.89051 7 5.82267ZM9 10.6564C11.67 10.6564 17 11.9422 17 14.5234V17.4237H1V14.5234C1 11.9422 6.33 10.6564 9 10.6564ZM2.9 14.5234C2.9 13.9047 6.03 12.4932 9 12.4932C11.97 12.4932 15.1 13.9047 15.1 14.5234V15.5868H2.9V14.5234Z" fill="black"/>
<mask id="mask0" mask-type="alpha" maskUnits="userSpaceOnUse" x="1" y="1" width="16" height="17">
<path fill-rule="evenodd" clip-rule="evenodd" d="M13 5.82267C13 3.68699 11.2091 1.95567 9 1.95567C6.79086 1.95567 5 3.68699 5 5.82267C5 7.95835 6.79086 9.68967 9 9.68967C11.2091 9.68967 13 7.95835 13 5.82267ZM7 5.82267C7 4.75483 7.89543 3.88917 9 3.88917C10.1046 3.88917 11 4.75483 11 5.82267C11 6.89051 10.1046 7.75617 9 7.75617C7.89543 7.75617 7 6.89051 7 5.82267ZM9 10.6564C11.67 10.6564 17 11.9422 17 14.5234V17.4237H1V14.5234C1 11.9422 6.33 10.6564 9 10.6564ZM2.9 14.5234C2.9 13.9047 6.03 12.4932 9 12.4932C11.97 12.4932 15.1 13.9047 15.1 14.5234V15.5868H2.9V14.5234Z" fill="white"/>
</mask>
<g mask="url(#mask0)">
<rect y="0.988922" width="18" height="17.4015" fill="#000000"/>
</g>
</svg>
