<svg width="50" height="50" viewBox="0 0 50 50" fill="none" xmlns="http://www.w3.org/2000/svg">
<g clip-path="url(#clip0)" >
<path d="M22.2815 29.33L16.6701 23.7186C14.3488 29.2336 16.9379 31.5791 22.2815 29.33Z" fill="#404f94"/>
<path d="M17.8667 21.4201L24.58 28.1334C25.6983 27.4441 26.8133 26.6 27.8822 25.6291L20.371 18.1179C19.4001 19.1868 18.556 20.3018 17.8667 21.4201Z" fill="#404f94"/>
<path d="M32.1332 20.5802L25.42 13.8669C24.3016 14.5562 23.1866 15.4003 22.1177 16.3712L29.6297 23.8833C30.6509 22.7568 31.5016 21.6126 32.1332 20.5802Z" fill="#404f94"/>
<path d="M27.7184 12.6704L33.3298 18.2818C35.6317 12.8456 33.1207 10.3965 27.7184 12.6704Z" fill="#404f94"/>
<path d="M24.1443 31.1927C13.5789 36.3803 9.04817 26.828 18.6219 16.3687L16.293 14.0398C11.0201 19.6718 7.99696 26.3595 6.36888 31.0857C4.51434 36.4698 4.02847 40.4523 4.0087 40.6195C3.92207 41.3511 4.49301 41.9997 5.23573 41.9997C5.75479 41.9997 9.9887 41.3279 14.9144 39.6313C19.6406 38.0032 26.3283 34.9801 31.9603 29.7072L29.6306 27.3775C28.0015 28.8703 26.1223 30.2258 24.1443 31.1927Z" fill="#404f94"/>
<path d="M36.0367 18.1022C35.1185 20.85 33.3419 23.4862 31.3781 25.6316L33.7069 27.9605C38.9799 22.3285 42.003 15.6408 43.6311 10.9146C45.4856 5.53053 45.9715 1.54804 45.9912 1.38086C46.085 0.58947 45.4144 -0.0835024 44.6193 0.0088954C44.4521 0.0286596 40.4696 0.51453 35.0855 2.36908C30.3594 3.99715 23.6717 7.02026 18.0397 12.2932L20.3686 14.6221C30.0798 5.73295 39.0862 8.956 36.0367 18.1022Z" fill="#404f94"/>
<path d="M18.0396 12.2932L12.5031 6.75674C12.0214 6.27416 11.239 6.27416 10.7565 6.75674C10.2739 7.23932 10.2739 8.02165 10.7565 8.5034L16.2929 14.0399C16.8301 13.463 17.4321 12.8589 18.0396 12.2932Z" fill="#404f94"/>
<path d="M39.8246 29.4276C39.3422 28.9452 38.5601 28.9452 38.0776 29.4276L36.6258 30.8794L33.7069 27.9605C33.1697 28.5374 32.5677 29.1413 31.9602 29.7072L34.8791 32.6261L33.4273 34.0779C32.9449 34.5603 32.9449 35.3424 33.4273 35.8248L39.2403 41.6378C39.7227 42.1203 40.5048 42.1203 40.9872 41.6378L45.6376 36.9874C46.12 36.5051 46.12 35.7229 45.6376 35.2405L39.8246 29.4276Z" fill="#404f94"/>
</g>
<defs>
<filter id="filter0_d" x="0" y="0" width="50" height="50" filterUnits="userSpaceOnUse" color-interpolation-filters="sRGB">
<feFlood flood-opacity="0" result="BackgroundImageFix"/>
<feColorMatrix in="SourceAlpha" type="matrix" values="0 0 0 0 0 0 0 0 0 0 0 0 0 0 0 0 0 0 127 0"/>
<feOffset dy="4"/>
<feGaussianBlur stdDeviation="2"/>
<feColorMatrix type="matrix" values="0 0 0 0 0 0 0 0 0 0 0 0 0 0 0 0 0 0 0.25 0"/>
<feBlend mode="normal" in2="BackgroundImageFix" result="effect1_dropShadow"/>
<feBlend mode="normal" in="SourceGraphic" in2="effect1_dropShadow" result="shape"/>
</filter>
<clipPath id="clip0">
<rect width="42" height="42" fill="white" transform="translate(4)"/>
</clipPath>
</defs>
</svg>
