<?xml version="1.0" standalone="no"?>
<!DOCTYPE svg PUBLIC "-//W3C//DTD SVG 20010904//EN"
 "http://www.w3.org/TR/2001/REC-SVG-20010904/DTD/svg10.dtd">
<svg version="1.0" xmlns="http://www.w3.org/2000/svg"
 width="452.000000pt" height="452.000000pt" viewBox="0 0 452.000000 452.000000"
 preserveAspectRatio="xMidYMid meet">
<metadata>
Created by potrace 1.16, written by Peter Selinger 2001-2019
</metadata>
<g transform="translate(0.000000,452.000000) scale(0.100000,-0.100000)"
fill="#000000" stroke="none">
<path d="M2001 4058 c-10 -24 -73 -184 -142 -355 l-124 -313 -447 0 -448 0 0
-154 0 -155 -35 -66 c-19 -37 -66 -111 -105 -165 -39 -54 -85 -127 -103 -162
l-32 -63 0 -820 0 -820 27 -57 c14 -31 44 -76 66 -100 37 -41 40 -47 44 -120
8 -126 58 -205 168 -264 32 -17 64 -19 363 -22 l327 -3 0 145 0 146 -285 0
-285 0 0 135 0 135 285 0 285 0 0 150 0 150 -355 0 -355 0 0 560 0 560 140 0
140 0 0 145 0 145 -90 0 -90 0 55 79 c75 107 116 197 122 271 l6 60 563 0 564
0 0 -38 c0 -64 38 -156 110 -264 l68 -103 -514 -3 -514 -2 0 -145 0 -145 565
0 565 0 0 -145 0 -145 145 0 145 0 0 238 c0 183 -3 250 -15 289 -9 29 -56 111
-111 194 -53 79 -109 170 -125 201 -28 56 -29 61 -29 208 l0 150 -249 0 -249
0 83 208 83 207 306 3 306 2 0 145 0 145 -405 0 -406 0 -18 -42z"/>
<path d="M2158 1829 c-105 -24 -228 -122 -277 -217 -47 -93 -51 -131 -51 -547
0 -434 3 -458 63 -536 17 -23 57 -56 87 -73 l55 -31 860 0 860 0 53 30 c59 32
91 66 125 129 22 40 22 47 22 486 l0 445 -36 75 c-39 82 -101 152 -173 194
-96 56 -99 56 -856 55 -382 -1 -712 -5 -732 -10z m1431 -297 c60 -30 76 -62
79 -163 l4 -89 -777 0 -778 0 5 83 c5 98 26 143 78 169 32 17 87 18 695 18
609 0 663 -1 694 -18z m-760 -592 c13 -44 58 -84 108 -95 72 -15 156 37 170
107 6 29 6 29 71 26 64 -3 66 -4 74 -34 18 -71 104 -117 177 -96 47 15 88 54
99 96 8 30 10 31 75 34 l67 3 0 -136 0 -135 -775 0 -775 0 0 135 0 135 348 0
349 0 12 -40z"/>
</g>
</svg>
