<svg width="40" height="26" viewBox="0 0 40 26" fill="none" xmlns="http://www.w3.org/2000/svg">
<path d="M3.10156 19.5625V22.1875H5.07236C4.9646 21.7709 4.91011 21.3424 4.91019 20.9121C4.91442 20.4563 4.97602 20.0029 5.09353 19.5625H3.10156Z" fill="#404f94"/>
<path d="M9.99211 19.4423C9.69481 19.4423 9.40419 19.5304 9.15698 19.6956C8.90978 19.8608 8.71711 20.0955 8.60333 20.3702C8.48955 20.6448 8.45977 20.9471 8.51777 21.2387C8.57577 21.5303 8.71893 21.7981 8.92915 22.0083C9.13938 22.2186 9.40722 22.3617 9.6988 22.4197C9.99039 22.4777 10.2926 22.4479 10.5673 22.3342C10.842 22.2204 11.0767 22.0277 11.2419 21.7805C11.407 21.5333 11.4952 21.2427 11.4952 20.9454C11.4947 20.5469 11.3362 20.1648 11.0545 19.883C10.7727 19.6012 10.3906 19.4427 9.99211 19.4423Z" fill="#404f94"/>
<path d="M3.10151 8.32422H2.01591C1.33784 8.32422 0.804633 8.90828 0.804633 9.58676V15.3115C0.802941 15.4712 0.833082 15.6297 0.893298 15.7777C0.953513 15.9257 1.0426 16.0602 1.15535 16.1734C1.26811 16.2866 1.40227 16.3761 1.55002 16.4369C1.69777 16.4977 1.85615 16.5284 2.01591 16.5273H3.10151V8.32422Z" fill="#404f94"/>
<path d="M9.9922 16.6832C9.1493 16.6832 8.32531 16.9331 7.62446 17.4014C6.9236 17.8697 6.37735 18.5353 6.05477 19.314C5.7322 20.0928 5.64779 20.9497 5.81223 21.7764C5.97667 22.6031 6.38257 23.3625 6.97859 23.9585C7.57462 24.5545 8.334 24.9604 9.16071 25.1249C9.98742 25.2893 10.8443 25.2049 11.6231 24.8823C12.4018 24.5597 13.0674 24.0135 13.5357 23.3126C14.004 22.6118 14.2539 21.7878 14.2539 20.9449C14.2526 19.815 13.8032 18.7318 13.0043 17.9328C12.2053 17.1339 11.1221 16.6845 9.9922 16.6832ZM9.9922 23.2683C9.53266 23.2684 9.08344 23.1321 8.70134 22.8768C8.31924 22.6215 8.02142 22.2586 7.84555 21.8341C7.66968 21.4095 7.62366 20.9424 7.7133 20.4917C7.80294 20.0409 8.02422 19.6269 8.34916 19.302C8.6741 18.977 9.0881 18.7557 9.53881 18.6661C9.98951 18.5764 10.4567 18.6224 10.8812 18.7983C11.3058 18.9741 11.6687 19.2719 11.924 19.654C12.1793 20.0361 12.3156 20.4853 12.3156 20.9449C12.315 21.561 12.0701 22.1516 11.6345 22.5873C11.1989 23.023 10.6083 23.2681 9.9922 23.2688V23.2683Z" fill="#404f94"/>
<path d="M17.6211 0.777344H11.9609V2.57703L17.6211 2.59581V0.777344Z" fill="#404f94"/>
<path d="M22.543 0.777344H18.4414V2.5986L22.543 2.61222V0.777344Z" fill="#404f94"/>
<path d="M36.7344 15.543H38.375V13.8083C38.382 13.7579 38.3859 13.7071 38.3866 13.6562H36.7344V15.543Z" fill="#404f94"/>
<path d="M32.6327 19.4423C32.3354 19.4423 32.0448 19.5304 31.7976 19.6956C31.5504 19.8608 31.3577 20.0955 31.244 20.3702C31.1302 20.6448 31.1004 20.9471 31.1584 21.2387C31.2164 21.5303 31.3596 21.7981 31.5698 22.0083C31.78 22.2186 32.0478 22.3617 32.3394 22.4197C32.631 22.4777 32.9333 22.4479 33.2079 22.3342C33.4826 22.2204 33.7173 22.0277 33.8825 21.7805C34.0477 21.5333 34.1358 21.2427 34.1358 20.9454C34.1354 20.5469 33.9769 20.1648 33.6951 19.883C33.4133 19.6012 33.0312 19.4427 32.6327 19.4423Z" fill="#404f94"/>
<path d="M11.1406 0.777344H7.03906V2.56062L11.1406 2.57432V0.777344Z" fill="#404f94"/>
<path d="M14.8909 19.5953C15.1279 20.4533 15.1352 21.3586 14.9121 22.2203H27.7128C27.4898 21.3586 27.4972 20.4533 27.7342 19.5953H14.8909Z" fill="#404f94"/>
<path d="M18.8516 5.86328V10.1289H25.1363L23.1963 5.86328H18.8516Z" fill="#404f94"/>
<path d="M37.7148 20.9128C37.7148 21.3428 37.6604 21.7712 37.5527 22.1875H39.1953V19.5625H37.5312C37.6489 20.0031 37.7105 20.4568 37.7148 20.9128Z" fill="#404f94"/>
<path d="M12.043 5.86328H18.0312V10.1289H12.043V5.86328Z" fill="#404f94"/>
<path d="M38.375 16.3633H36.6386C36.5433 16.3647 36.4486 16.347 36.3602 16.3111C36.2718 16.2753 36.1914 16.2222 36.1239 16.1548C36.0564 16.0875 36.003 16.0073 35.967 15.9189C35.9309 15.8306 35.9129 15.736 35.9141 15.6406V13.5625C35.9129 13.4669 35.9308 13.3721 35.9667 13.2835C36.0027 13.195 36.056 13.1145 36.1235 13.0468C36.191 12.9791 36.2713 12.9256 36.3598 12.8894C36.4483 12.8532 36.5431 12.835 36.6386 12.836H38.1421C37.9836 12.5436 37.7564 12.2942 37.48 12.1092C37.2036 11.9243 36.8863 11.8094 36.5556 11.7745L28.523 10.9319C28.4517 10.9245 28.3835 10.8986 28.3253 10.8566C28.2671 10.8146 28.221 10.7582 28.1914 10.6928L25.4579 4.64268C25.2951 4.28439 25.033 3.98029 24.7027 3.76643C24.3724 3.55257 23.9876 3.43792 23.5941 3.43608L5.99841 3.37743C5.45171 3.37623 4.92668 3.59114 4.53773 3.97533C4.14878 4.35953 3.92741 4.88186 3.92188 5.42854V18.7422H5.39786C5.81165 17.8726 6.46409 17.1385 7.27914 16.6255C8.09419 16.1125 9.03827 15.8417 10.0013 15.8447C10.9644 15.8478 11.9067 16.1245 12.7185 16.6426C13.5303 17.1607 14.1781 17.899 14.5864 18.7712L28.0391 18.7668C28.4488 17.8961 29.0972 17.1595 29.909 16.6427C30.7209 16.1259 31.6627 15.8502 32.625 15.8477C33.5874 15.8451 34.5307 16.1157 35.3452 16.6281C36.1598 17.1405 36.8122 17.8737 37.2266 18.7422H38.375V16.3633ZM5.93164 10.9492C5.70515 10.9492 5.48047 10.7505 5.48047 10.524V5.49212C5.48819 5.37519 5.53826 5.26509 5.62131 5.18242C5.70435 5.09975 5.81468 5.05018 5.93164 5.04299H23.459C23.5392 5.04734 23.6165 5.07397 23.6823 5.1199C23.7481 5.16583 23.7998 5.22923 23.8315 5.30295L26.1493 10.3561C26.1779 10.4193 26.1903 10.4886 26.1856 10.5577C26.1808 10.6269 26.1591 10.6938 26.1222 10.7526C26.0853 10.8113 26.0345 10.86 25.9742 10.8943C25.9139 10.9286 25.8461 10.9474 25.7768 10.9492L5.93164 10.9492ZM17.8738 17.5118H17.4391C17.3303 17.5118 17.226 17.4685 17.149 17.3916C17.0721 17.3147 17.0289 17.2104 17.0289 17.1016C17.0289 16.9928 17.0721 16.8885 17.149 16.8116C17.226 16.7347 17.3303 16.6914 17.4391 16.6914H17.8738C17.9826 16.6914 18.0869 16.7347 18.1639 16.8116C18.2408 16.8885 18.284 16.9928 18.284 17.1016C18.284 17.2104 18.2408 17.3147 18.1639 17.3916C18.0869 17.4685 17.9826 17.5118 17.8738 17.5118ZM27.3918 17.5118H19.5149C19.4061 17.5118 19.3018 17.4685 19.2248 17.3916C19.1479 17.3147 19.1047 17.2104 19.1047 17.1016C19.1047 16.9928 19.1479 16.8885 19.2248 16.8116C19.3018 16.7347 19.4061 16.6914 19.5149 16.6914H27.3918C27.5006 16.6914 27.6049 16.7347 27.6819 16.8116C27.7588 16.8885 27.802 16.9928 27.802 17.1016C27.802 17.2104 27.7588 17.3147 27.6819 17.3916C27.6049 17.4685 27.5006 17.5118 27.3918 17.5118Z" fill="#404f94"/>
<path d="M32.6328 16.6832C31.7899 16.6832 30.9659 16.9331 30.2651 17.4014C29.5642 17.8697 29.018 18.5353 28.6954 19.314C28.3728 20.0928 28.2884 20.9497 28.4529 21.7764C28.6173 22.6031 29.0232 23.3625 29.6192 23.9585C30.2152 24.5545 30.9746 24.9604 31.8013 25.1249C32.628 25.2893 33.485 25.2049 34.2637 24.8823C35.0424 24.5597 35.708 24.0135 36.1763 23.3126C36.6446 22.6118 36.8945 21.7878 36.8945 20.9449C36.8932 19.815 36.4438 18.7318 35.6449 17.9328C34.8459 17.1339 33.7627 16.6845 32.6328 16.6832ZM32.6328 23.2683C32.1733 23.2684 31.7241 23.1321 31.342 22.8768C30.9599 22.6215 30.662 22.2586 30.4862 21.8341C30.3103 21.4095 30.2643 20.9424 30.3539 20.4917C30.4436 20.0409 30.6648 19.6269 30.9898 19.302C31.3147 18.977 31.7287 18.7557 32.1794 18.6661C32.6301 18.5764 33.0973 18.6224 33.5219 18.7983C33.9464 18.9741 34.3093 19.2719 34.5646 19.654C34.8199 20.0361 34.9562 20.4853 34.9562 20.9449C34.9556 21.561 34.7107 22.1516 34.2751 22.5873C33.8395 23.023 33.2489 23.2681 32.6328 23.2688V23.2683Z" fill="#404f94"/>
<path d="M6.30078 5.86328H11.2227V10.1289H6.30078V5.86328Z" fill="#404f94"/>
</svg>
