<?xml version="1.0" standalone="no"?>
<!DOCTYPE svg PUBLIC "-//W3C//DTD SVG 20010904//EN"
 "http://www.w3.org/TR/2001/REC-SVG-20010904/DTD/svg10.dtd">
<svg version="1.0" xmlns="http://www.w3.org/2000/svg"
 width="860.000000pt" height="643.000000pt" viewBox="0 0 860.000000 643.000000"
 preserveAspectRatio="xMidYMid meet">
<metadata>
Created by potrace 1.16, written by Peter Selinger 2001-2019
</metadata>
<g transform="translate(0.000000,643.000000) scale(0.100000,-0.100000)"
fill="#000000" stroke="none">
<path d="M1935 6019 c-286 -13 -418 -68 -531 -221 -76 -104 -94 -187 -168
-773 -95 -758 -157 -1409 -192 -2022 -8 -141 -14 -133 88 -107 58 15 118 16
715 4 534 -11 769 -11 1290 0 663 13 678 13 776 -26 17 -6 18 -2 13 62 -3 38
-8 128 -11 199 -24 520 -168 1900 -250 2378 -29 176 -57 236 -152 338 -69 73
-147 120 -238 144 -101 26 -965 42 -1340 24z m944 -1199 c165 -12 243 -26 284
-54 27 -19 32 -29 35 -69 3 -40 -1 -51 -23 -73 -26 -26 -30 -26 -103 -21 -43
4 -120 11 -172 17 -123 14 -642 14 -790 0 -277 -26 -275 -26 -304 3 -31 31
-36 99 -9 129 25 28 108 48 282 69 128 15 202 17 411 13 140 -3 315 -9 389
-14z"/>
<path d="M5560 6019 c-208 -9 -311 -35 -414 -104 -62 -41 -140 -131 -167 -192
-42 -98 -93 -437 -178 -1183 -72 -629 -153 -1642 -133 -1662 6 -6 18 -6 31 1
54 29 186 33 781 20 481 -10 721 -10 1255 1 686 13 700 13 799 -26 18 -7 19
-2 12 152 -22 509 -142 1702 -237 2354 -46 321 -58 352 -192 488 -66 67 -127
103 -221 127 -102 26 -969 42 -1336 24z m920 -1200 c265 -16 332 -39 338 -114
2 -21 -3 -50 -10 -63 -23 -43 -55 -50 -170 -35 -286 35 -749 38 -993 7 -160
-20 -191 -19 -220 11 -19 18 -25 35 -25 69 0 78 35 93 295 126 124 16 191 18
390 14 132 -2 310 -9 395 -15z"/>
<path d="M362 3829 c-48 -14 -62 -55 -62 -183 0 -96 2 -107 24 -133 l24 -28
229 -3 c257 -4 322 1 355 28 22 17 23 25 23 144 0 186 1 185 -345 185 -118 -1
-230 -5 -248 -10z"/>
<path d="M4030 3827 c-49 -17 -63 -62 -58 -194 5 -154 -7 -147 276 -151 255
-4 321 1 354 28 21 17 23 28 26 130 4 125 -5 160 -46 181 -38 19 -501 24 -552
6z"/>
<path d="M7743 3801 c-35 -4 -61 -14 -75 -29 -21 -21 -23 -31 -23 -151 0 -93
4 -132 14 -144 26 -32 90 -41 301 -41 212 -1 296 10 322 41 17 21 24 214 9
263 -17 58 -37 63 -281 66 -118 1 -239 -1 -267 -5z"/>
<path d="M441 2894 c1 -427 16 -934 29 -994 16 -71 33 -103 86 -166 71 -84
143 -132 244 -165 49 -16 99 -29 109 -29 11 0 22 -4 25 -9 10 -15 26 -145 51
-411 14 -146 28 -289 32 -317 l6 -53 -120 0 c-108 0 -123 -2 -154 -23 -78 -52
-100 -135 -56 -211 39 -68 58 -77 203 -86 71 -5 265 -9 431 -10 l302 0 36 32
c47 41 75 97 75 149 0 37 -6 48 -53 96 l-54 53 -94 0 c-138 0 -139 1 -139 69
0 31 5 99 10 151 16 145 50 522 50 548 l0 22 1285 0 1285 0 4 -22 c17 -78 81
-746 73 -754 -4 -4 -60 -10 -125 -13 -130 -7 -157 -17 -193 -74 -16 -26 -19
-45 -17 -99 3 -58 8 -71 33 -98 16 -16 45 -35 64 -41 21 -6 207 -13 444 -16
l408 -6 26 24 c14 13 39 42 54 63 35 48 39 108 9 166 -29 57 -66 72 -190 80
-58 3 -111 10 -119 14 -15 10 -13 45 19 376 10 107 22 231 25 275 3 44 8 90
11 103 l4 22 1279 0 1279 0 6 -27 c19 -88 82 -741 73 -750 -4 -3 -58 -9 -120
-11 -124 -5 -153 -15 -191 -65 -22 -29 -26 -45 -26 -100 0 -60 3 -70 31 -101
17 -20 47 -40 67 -46 22 -7 200 -14 445 -17 l408 -6 26 24 c56 52 83 100 83
148 0 64 -27 111 -80 139 -38 19 -60 22 -152 22 l-108 0 0 43 c0 73 66 726 74
734 1 2 38 12 80 23 180 46 288 129 368 285 l46 90 7 598 8 597 -196 0 c-108
0 -207 -4 -220 -9 -30 -12 -36 -25 -53 -136 -21 -134 -18 -182 10 -219 72 -95
111 -235 104 -377 -2 -49 -9 -94 -15 -100 -8 -8 -22 6 -52 49 -44 65 -103 120
-167 156 -97 54 -25 52 -1474 50 -1216 -2 -1349 -4 -1390 -18 -95 -35 -204
-127 -253 -215 -25 -43 -25 -43 -37 -20 -16 29 -16 216 -1 283 17 71 55 147
102 199 l40 46 -32 164 -33 164 -110 7 c-61 3 -158 6 -216 6 l-105 0 -29 -162
-28 -163 49 -51 c28 -28 62 -76 77 -106 50 -101 70 -304 38 -387 -8 -23 -10
-21 -46 37 -62 102 -173 183 -286 209 -52 13 -2676 10 -2725 -2 -94 -24 -206
-107 -266 -199 -51 -78 -58 -73 -66 42 -10 148 29 291 106 386 17 22 31 50 31
65 -1 33 -46 311 -52 317 -3 2 -100 7 -217 11 l-211 6 1 -259z"/>
</g>
</svg>
