<svg xmlns="http://www.w3.org/2000/svg" xmlns:xlink="http://www.w3.org/1999/xlink" width="119" height="125.04" viewBox="0 0 119 125.04">
  <defs>
    <filter id="Subtraction_4" x="0" y="0" width="119" height="125.04" filterUnits="userSpaceOnUse">
      <feOffset input="SourceAlpha"/>
      <feGaussianBlur stdDeviation="15" result="blur"/>
      <feFlood flood-opacity="0.161"/>
      <feComposite operator="in" in2="blur"/>
      <feComposite in="SourceGraphic"/>
    </filter>
  </defs>
  <g transform="matrix(1, 0, 0, 1, 0, 0)" filter="url(#Subtraction_4)">
    <path id="Subtraction_4-2" data-name="Subtraction 4" d="M24.675,34.04a3.212,3.212,0,0,1-1.407-.327L13.517,29l-8.7,4.508a3.2,3.2,0,0,1-1.486.368A3.313,3.313,0,0,1,1.009,32.9,3.463,3.463,0,0,1,0,30.427V3.722A3.664,3.664,0,0,1,3.594,0H24.406A3.664,3.664,0,0,1,28,3.722v26.87A3.392,3.392,0,0,1,24.675,34.04ZM7.373,6A1.442,1.442,0,0,0,6,7.5,1.442,1.442,0,0,0,7.373,9H20.627A1.442,1.442,0,0,0,22,7.5,1.442,1.442,0,0,0,20.627,6Z" transform="translate(45.5 45.5)" fill="#fff" stroke="rgba(0,0,0,0)" stroke-miterlimit="10" stroke-width="1"/>
  </g>
</svg>
