<?xml version="1.0" standalone="no"?>
<!DOCTYPE svg PUBLIC "-//W3C//DTD SVG 20010904//EN"
 "http://www.w3.org/TR/2001/REC-SVG-20010904/DTD/svg10.dtd">
<svg version="1.0" xmlns="http://www.w3.org/2000/svg"
 width="225.000000pt" height="225.000000pt" viewBox="0 0 225.000000 225.000000"
 preserveAspectRatio="xMidYMid meet">
<metadata>
Created by potrace 1.16, written by Peter Selinger 2001-2019
</metadata>
<g transform="translate(0.000000,225.000000) scale(0.100000,-0.100000)"
fill="#000000" stroke="none">
<path d="M1104 2105 c-18 -13 -19 -46 -22 -977 -3 -960 -3 -964 18 -983 17
-15 24 -16 45 -7 l25 12 0 937 c0 516 -3 955 -6 976 -8 45 -33 63 -60 42z"/>
<path d="M329 2087 c-18 -12 -44 -37 -56 -56 -85 -126 22 -289 174 -266 39 6
57 16 95 55 47 47 48 48 48 112 0 51 -5 72 -23 99 -37 55 -81 79 -147 79 -43
0 -65 -6 -91 -23z"/>
<path d="M1692 2093 c-113 -56 -124 -228 -19 -300 88 -60 208 -29 257 68 59
114 -25 249 -155 249 -27 0 -65 -8 -83 -17z"/>
<path d="M195 1715 c-5 -2 -22 -6 -37 -9 -34 -8 -93 -59 -116 -100 -15 -27
-17 -68 -17 -334 l0 -304 24 -19 c30 -24 72 -24 102 0 24 19 24 20 29 293 4
234 7 273 20 273 13 0 16 -83 20 -665 3 -366 9 -671 13 -678 5 -6 22 -19 38
-28 37 -18 79 -11 105 18 18 19 19 46 22 390 3 340 5 369 20 366 15 -3 17 -37
22 -370 5 -342 6 -367 24 -387 29 -32 99 -29 131 5 l25 27 0 664 c0 627 1 664
18 661 16 -3 17 -26 22 -275 5 -248 7 -273 24 -292 24 -27 79 -28 104 -3 16
16 20 43 25 187 10 247 8 393 -4 436 -14 47 -60 104 -102 127 -27 15 -66 17
-267 19 -129 1 -239 1 -245 -2z"/>
<path d="M1544 1713 c-48 -9 -60 -40 -137 -353 -96 -385 -94 -376 -72 -400 21
-23 53 -26 78 -7 11 8 38 92 77 242 32 127 62 240 66 253 8 27 34 29 34 2 0
-11 -40 -184 -90 -384 -49 -200 -90 -369 -90 -375 0 -6 35 -11 88 -13 l87 -3
3 -252 2 -252 28 -21 c32 -26 78 -21 105 11 15 19 17 48 17 270 l0 249 30 0
30 0 0 -237 c0 -258 4 -278 54 -301 32 -16 80 -2 96 29 6 10 10 125 10 263 l0
246 90 0 c89 0 90 0 85 23 -3 12 -46 186 -95 386 -63 252 -88 367 -80 375 7 7
13 7 21 -1 6 -6 38 -118 71 -249 32 -132 67 -247 75 -256 34 -38 109 -4 98 45
-19 91 -138 565 -155 619 -30 98 -31 98 -292 97 -117 -1 -223 -4 -234 -6z"/>
</g>
</svg>
